<?xml version="1.0" encoding="utf-8" standalone="no"?>
<!DOCTYPE svg PUBLIC "-//W3C//DTD SVG 1.1//EN"
  "http://www.w3.org/Graphics/SVG/1.1/DTD/svg11.dtd">
<!-- Created with matplotlib (http://matplotlib.org/) -->
<svg height="288pt" version="1.1" viewBox="0 0 432 288" width="432pt" xmlns="http://www.w3.org/2000/svg" xmlns:xlink="http://www.w3.org/1999/xlink">
 <defs>
  <style type="text/css">
*{stroke-linecap:butt;stroke-linejoin:round;}
  </style>
 </defs>
 <g id="figure_1">
  <g id="patch_1">
   <path d="M 0 288 
L 432 288 
L 432 0 
L 0 0 
z
" style="fill:#ffffff;"/>
  </g>
  <g id="axes_1">
   <g id="patch_2">
    <path d="M 54 252 
L 388.8 252 
L 388.8 34.56 
L 54 34.56 
z
" style="fill:#ffffff;"/>
   </g>
   <g id="matplotlib.axis_1">
    <g id="xtick_1">
     <g id="line2d_1">
      <path clip-path="url(#pda0a163d1c)" d="M 69.218182 252 
L 69.218182 34.56 
" style="fill:none;stroke:#b0b0b0;stroke-linecap:square;stroke-width:0.8;"/>
     </g>
     <g id="line2d_2">
      <defs>
       <path d="M 0 0 
L 0 3.5 
" id="m9657231f01" style="stroke:#000000;stroke-width:0.8;"/>
      </defs>
      <g>
       <use style="stroke:#000000;stroke-width:0.8;" x="69.218182" xlink:href="#m9657231f01" y="252"/>
      </g>
     </g>
     <g id="text_1">
      <!-- 0 -->
      <defs>
       <path d="M 31.78125 66.40625 
Q 24.171875 66.40625 20.328125 58.90625 
Q 16.5 51.421875 16.5 36.375 
Q 16.5 21.390625 20.328125 13.890625 
Q 24.171875 6.390625 31.78125 6.390625 
Q 39.453125 6.390625 43.28125 13.890625 
Q 47.125 21.390625 47.125 36.375 
Q 47.125 51.421875 43.28125 58.90625 
Q 39.453125 66.40625 31.78125 66.40625 
M 31.78125 74.21875 
Q 44.046875 74.21875 50.515625 64.515625 
Q 56.984375 54.828125 56.984375 36.375 
Q 56.984375 17.96875 50.515625 8.265625 
Q 44.046875 -1.421875 31.78125 -1.421875 
Q 19.53125 -1.421875 13.0625 8.265625 
Q 6.59375 17.96875 6.59375 36.375 
Q 6.59375 54.828125 13.0625 64.515625 
Q 19.53125 74.21875 31.78125 74.21875 
" id="DejaVuSans-30"/>
      </defs>
      <g transform="translate(66.036932 266.598437)scale(0.1 -0.1)">
       <use xlink:href="#DejaVuSans-30"/>
      </g>
     </g>
    </g>
    <g id="xtick_2">
     <g id="line2d_3">
      <path clip-path="url(#pda0a163d1c)" d="M 115.000919 252 
L 115.000919 34.56 
" style="fill:none;stroke:#b0b0b0;stroke-linecap:square;stroke-width:0.8;"/>
     </g>
     <g id="line2d_4">
      <g>
       <use style="stroke:#000000;stroke-width:0.8;" x="115.000919" xlink:href="#m9657231f01" y="252"/>
      </g>
     </g>
     <g id="text_2">
      <!-- 500 -->
      <defs>
       <path d="M 10.796875 72.90625 
L 49.515625 72.90625 
L 49.515625 64.59375 
L 19.828125 64.59375 
L 19.828125 46.734375 
Q 21.96875 47.46875 24.109375 47.828125 
Q 26.265625 48.1875 28.421875 48.1875 
Q 40.625 48.1875 47.75 41.5 
Q 54.890625 34.8125 54.890625 23.390625 
Q 54.890625 11.625 47.5625 5.09375 
Q 40.234375 -1.421875 26.90625 -1.421875 
Q 22.3125 -1.421875 17.546875 -0.640625 
Q 12.796875 0.140625 7.71875 1.703125 
L 7.71875 11.625 
Q 12.109375 9.234375 16.796875 8.0625 
Q 21.484375 6.890625 26.703125 6.890625 
Q 35.15625 6.890625 40.078125 11.328125 
Q 45.015625 15.765625 45.015625 23.390625 
Q 45.015625 31 40.078125 35.4375 
Q 35.15625 39.890625 26.703125 39.890625 
Q 22.75 39.890625 18.8125 39.015625 
Q 14.890625 38.140625 10.796875 36.28125 
z
" id="DejaVuSans-35"/>
      </defs>
      <g transform="translate(105.457169 266.598437)scale(0.1 -0.1)">
       <use xlink:href="#DejaVuSans-35"/>
       <use x="63.623047" xlink:href="#DejaVuSans-30"/>
       <use x="127.246094" xlink:href="#DejaVuSans-30"/>
      </g>
     </g>
    </g>
    <g id="xtick_3">
     <g id="line2d_5">
      <path clip-path="url(#pda0a163d1c)" d="M 160.783656 252 
L 160.783656 34.56 
" style="fill:none;stroke:#b0b0b0;stroke-linecap:square;stroke-width:0.8;"/>
     </g>
     <g id="line2d_6">
      <g>
       <use style="stroke:#000000;stroke-width:0.8;" x="160.783656" xlink:href="#m9657231f01" y="252"/>
      </g>
     </g>
     <g id="text_3">
      <!-- 1000 -->
      <defs>
       <path d="M 12.40625 8.296875 
L 28.515625 8.296875 
L 28.515625 63.921875 
L 10.984375 60.40625 
L 10.984375 69.390625 
L 28.421875 72.90625 
L 38.28125 72.90625 
L 38.28125 8.296875 
L 54.390625 8.296875 
L 54.390625 0 
L 12.40625 0 
z
" id="DejaVuSans-31"/>
      </defs>
      <g transform="translate(148.058656 266.598437)scale(0.1 -0.1)">
       <use xlink:href="#DejaVuSans-31"/>
       <use x="63.623047" xlink:href="#DejaVuSans-30"/>
       <use x="127.246094" xlink:href="#DejaVuSans-30"/>
       <use x="190.869141" xlink:href="#DejaVuSans-30"/>
      </g>
     </g>
    </g>
    <g id="xtick_4">
     <g id="line2d_7">
      <path clip-path="url(#pda0a163d1c)" d="M 206.566393 252 
L 206.566393 34.56 
" style="fill:none;stroke:#b0b0b0;stroke-linecap:square;stroke-width:0.8;"/>
     </g>
     <g id="line2d_8">
      <g>
       <use style="stroke:#000000;stroke-width:0.8;" x="206.566393" xlink:href="#m9657231f01" y="252"/>
      </g>
     </g>
     <g id="text_4">
      <!-- 1500 -->
      <g transform="translate(193.841393 266.598437)scale(0.1 -0.1)">
       <use xlink:href="#DejaVuSans-31"/>
       <use x="63.623047" xlink:href="#DejaVuSans-35"/>
       <use x="127.246094" xlink:href="#DejaVuSans-30"/>
       <use x="190.869141" xlink:href="#DejaVuSans-30"/>
      </g>
     </g>
    </g>
    <g id="xtick_5">
     <g id="line2d_9">
      <path clip-path="url(#pda0a163d1c)" d="M 252.34913 252 
L 252.34913 34.56 
" style="fill:none;stroke:#b0b0b0;stroke-linecap:square;stroke-width:0.8;"/>
     </g>
     <g id="line2d_10">
      <g>
       <use style="stroke:#000000;stroke-width:0.8;" x="252.34913" xlink:href="#m9657231f01" y="252"/>
      </g>
     </g>
     <g id="text_5">
      <!-- 2000 -->
      <defs>
       <path d="M 19.1875 8.296875 
L 53.609375 8.296875 
L 53.609375 0 
L 7.328125 0 
L 7.328125 8.296875 
Q 12.9375 14.109375 22.625 23.890625 
Q 32.328125 33.6875 34.8125 36.53125 
Q 39.546875 41.84375 41.421875 45.53125 
Q 43.3125 49.21875 43.3125 52.78125 
Q 43.3125 58.59375 39.234375 62.25 
Q 35.15625 65.921875 28.609375 65.921875 
Q 23.96875 65.921875 18.8125 64.3125 
Q 13.671875 62.703125 7.8125 59.421875 
L 7.8125 69.390625 
Q 13.765625 71.78125 18.9375 73 
Q 24.125 74.21875 28.421875 74.21875 
Q 39.75 74.21875 46.484375 68.546875 
Q 53.21875 62.890625 53.21875 53.421875 
Q 53.21875 48.921875 51.53125 44.890625 
Q 49.859375 40.875 45.40625 35.40625 
Q 44.1875 33.984375 37.640625 27.21875 
Q 31.109375 20.453125 19.1875 8.296875 
" id="DejaVuSans-32"/>
      </defs>
      <g transform="translate(239.62413 266.598437)scale(0.1 -0.1)">
       <use xlink:href="#DejaVuSans-32"/>
       <use x="63.623047" xlink:href="#DejaVuSans-30"/>
       <use x="127.246094" xlink:href="#DejaVuSans-30"/>
       <use x="190.869141" xlink:href="#DejaVuSans-30"/>
      </g>
     </g>
    </g>
    <g id="xtick_6">
     <g id="line2d_11">
      <path clip-path="url(#pda0a163d1c)" d="M 298.131867 252 
L 298.131867 34.56 
" style="fill:none;stroke:#b0b0b0;stroke-linecap:square;stroke-width:0.8;"/>
     </g>
     <g id="line2d_12">
      <g>
       <use style="stroke:#000000;stroke-width:0.8;" x="298.131867" xlink:href="#m9657231f01" y="252"/>
      </g>
     </g>
     <g id="text_6">
      <!-- 2500 -->
      <g transform="translate(285.406867 266.598437)scale(0.1 -0.1)">
       <use xlink:href="#DejaVuSans-32"/>
       <use x="63.623047" xlink:href="#DejaVuSans-35"/>
       <use x="127.246094" xlink:href="#DejaVuSans-30"/>
       <use x="190.869141" xlink:href="#DejaVuSans-30"/>
      </g>
     </g>
    </g>
    <g id="xtick_7">
     <g id="line2d_13">
      <path clip-path="url(#pda0a163d1c)" d="M 343.914605 252 
L 343.914605 34.56 
" style="fill:none;stroke:#b0b0b0;stroke-linecap:square;stroke-width:0.8;"/>
     </g>
     <g id="line2d_14">
      <g>
       <use style="stroke:#000000;stroke-width:0.8;" x="343.914605" xlink:href="#m9657231f01" y="252"/>
      </g>
     </g>
     <g id="text_7">
      <!-- 3000 -->
      <defs>
       <path d="M 40.578125 39.3125 
Q 47.65625 37.796875 51.625 33 
Q 55.609375 28.21875 55.609375 21.1875 
Q 55.609375 10.40625 48.1875 4.484375 
Q 40.765625 -1.421875 27.09375 -1.421875 
Q 22.515625 -1.421875 17.65625 -0.515625 
Q 12.796875 0.390625 7.625 2.203125 
L 7.625 11.71875 
Q 11.71875 9.328125 16.59375 8.109375 
Q 21.484375 6.890625 26.8125 6.890625 
Q 36.078125 6.890625 40.9375 10.546875 
Q 45.796875 14.203125 45.796875 21.1875 
Q 45.796875 27.640625 41.28125 31.265625 
Q 36.765625 34.90625 28.71875 34.90625 
L 20.21875 34.90625 
L 20.21875 43.015625 
L 29.109375 43.015625 
Q 36.375 43.015625 40.234375 45.921875 
Q 44.09375 48.828125 44.09375 54.296875 
Q 44.09375 59.90625 40.109375 62.90625 
Q 36.140625 65.921875 28.71875 65.921875 
Q 24.65625 65.921875 20.015625 65.03125 
Q 15.375 64.15625 9.8125 62.3125 
L 9.8125 71.09375 
Q 15.4375 72.65625 20.34375 73.4375 
Q 25.25 74.21875 29.59375 74.21875 
Q 40.828125 74.21875 47.359375 69.109375 
Q 53.90625 64.015625 53.90625 55.328125 
Q 53.90625 49.265625 50.4375 45.09375 
Q 46.96875 40.921875 40.578125 39.3125 
" id="DejaVuSans-33"/>
      </defs>
      <g transform="translate(331.189605 266.598437)scale(0.1 -0.1)">
       <use xlink:href="#DejaVuSans-33"/>
       <use x="63.623047" xlink:href="#DejaVuSans-30"/>
       <use x="127.246094" xlink:href="#DejaVuSans-30"/>
       <use x="190.869141" xlink:href="#DejaVuSans-30"/>
      </g>
     </g>
    </g>
    <g id="text_8">
     <!-- Data Points -->
     <defs>
      <path d="M 19.671875 64.796875 
L 19.671875 8.109375 
L 31.59375 8.109375 
Q 46.6875 8.109375 53.6875 14.9375 
Q 60.6875 21.78125 60.6875 36.53125 
Q 60.6875 51.171875 53.6875 57.984375 
Q 46.6875 64.796875 31.59375 64.796875 
z
M 9.8125 72.90625 
L 30.078125 72.90625 
Q 51.265625 72.90625 61.171875 64.09375 
Q 71.09375 55.28125 71.09375 36.53125 
Q 71.09375 17.671875 61.125 8.828125 
Q 51.171875 0 30.078125 0 
L 9.8125 0 
z
" id="DejaVuSans-44"/>
      <path d="M 34.28125 27.484375 
Q 23.390625 27.484375 19.1875 25 
Q 14.984375 22.515625 14.984375 16.5 
Q 14.984375 11.71875 18.140625 8.90625 
Q 21.296875 6.109375 26.703125 6.109375 
Q 34.1875 6.109375 38.703125 11.40625 
Q 43.21875 16.703125 43.21875 25.484375 
L 43.21875 27.484375 
z
M 52.203125 31.203125 
L 52.203125 0 
L 43.21875 0 
L 43.21875 8.296875 
Q 40.140625 3.328125 35.546875 0.953125 
Q 30.953125 -1.421875 24.3125 -1.421875 
Q 15.921875 -1.421875 10.953125 3.296875 
Q 6 8.015625 6 15.921875 
Q 6 25.140625 12.171875 29.828125 
Q 18.359375 34.515625 30.609375 34.515625 
L 43.21875 34.515625 
L 43.21875 35.40625 
Q 43.21875 41.609375 39.140625 45 
Q 35.0625 48.390625 27.6875 48.390625 
Q 23 48.390625 18.546875 47.265625 
Q 14.109375 46.140625 10.015625 43.890625 
L 10.015625 52.203125 
Q 14.9375 54.109375 19.578125 55.046875 
Q 24.21875 56 28.609375 56 
Q 40.484375 56 46.34375 49.84375 
Q 52.203125 43.703125 52.203125 31.203125 
" id="DejaVuSans-61"/>
      <path d="M 18.3125 70.21875 
L 18.3125 54.6875 
L 36.8125 54.6875 
L 36.8125 47.703125 
L 18.3125 47.703125 
L 18.3125 18.015625 
Q 18.3125 11.328125 20.140625 9.421875 
Q 21.96875 7.515625 27.59375 7.515625 
L 36.8125 7.515625 
L 36.8125 0 
L 27.59375 0 
Q 17.1875 0 13.234375 3.875 
Q 9.28125 7.765625 9.28125 18.015625 
L 9.28125 47.703125 
L 2.6875 47.703125 
L 2.6875 54.6875 
L 9.28125 54.6875 
L 9.28125 70.21875 
z
" id="DejaVuSans-74"/>
      <path id="DejaVuSans-20"/>
      <path d="M 19.671875 64.796875 
L 19.671875 37.40625 
L 32.078125 37.40625 
Q 38.96875 37.40625 42.71875 40.96875 
Q 46.484375 44.53125 46.484375 51.125 
Q 46.484375 57.671875 42.71875 61.234375 
Q 38.96875 64.796875 32.078125 64.796875 
z
M 9.8125 72.90625 
L 32.078125 72.90625 
Q 44.34375 72.90625 50.609375 67.359375 
Q 56.890625 61.8125 56.890625 51.125 
Q 56.890625 40.328125 50.609375 34.8125 
Q 44.34375 29.296875 32.078125 29.296875 
L 19.671875 29.296875 
L 19.671875 0 
L 9.8125 0 
z
" id="DejaVuSans-50"/>
      <path d="M 30.609375 48.390625 
Q 23.390625 48.390625 19.1875 42.75 
Q 14.984375 37.109375 14.984375 27.296875 
Q 14.984375 17.484375 19.15625 11.84375 
Q 23.34375 6.203125 30.609375 6.203125 
Q 37.796875 6.203125 41.984375 11.859375 
Q 46.1875 17.53125 46.1875 27.296875 
Q 46.1875 37.015625 41.984375 42.703125 
Q 37.796875 48.390625 30.609375 48.390625 
M 30.609375 56 
Q 42.328125 56 49.015625 48.375 
Q 55.71875 40.765625 55.71875 27.296875 
Q 55.71875 13.875 49.015625 6.21875 
Q 42.328125 -1.421875 30.609375 -1.421875 
Q 18.84375 -1.421875 12.171875 6.21875 
Q 5.515625 13.875 5.515625 27.296875 
Q 5.515625 40.765625 12.171875 48.375 
Q 18.84375 56 30.609375 56 
" id="DejaVuSans-6f"/>
      <path d="M 9.421875 54.6875 
L 18.40625 54.6875 
L 18.40625 0 
L 9.421875 0 
z
M 9.421875 75.984375 
L 18.40625 75.984375 
L 18.40625 64.59375 
L 9.421875 64.59375 
z
" id="DejaVuSans-69"/>
      <path d="M 54.890625 33.015625 
L 54.890625 0 
L 45.90625 0 
L 45.90625 32.71875 
Q 45.90625 40.484375 42.875 44.328125 
Q 39.84375 48.1875 33.796875 48.1875 
Q 26.515625 48.1875 22.3125 43.546875 
Q 18.109375 38.921875 18.109375 30.90625 
L 18.109375 0 
L 9.078125 0 
L 9.078125 54.6875 
L 18.109375 54.6875 
L 18.109375 46.1875 
Q 21.34375 51.125 25.703125 53.5625 
Q 30.078125 56 35.796875 56 
Q 45.21875 56 50.046875 50.171875 
Q 54.890625 44.34375 54.890625 33.015625 
" id="DejaVuSans-6e"/>
      <path d="M 44.28125 53.078125 
L 44.28125 44.578125 
Q 40.484375 46.53125 36.375 47.5 
Q 32.28125 48.484375 27.875 48.484375 
Q 21.1875 48.484375 17.84375 46.4375 
Q 14.5 44.390625 14.5 40.28125 
Q 14.5 37.15625 16.890625 35.375 
Q 19.28125 33.59375 26.515625 31.984375 
L 29.59375 31.296875 
Q 39.15625 29.25 43.1875 25.515625 
Q 47.21875 21.78125 47.21875 15.09375 
Q 47.21875 7.46875 41.1875 3.015625 
Q 35.15625 -1.421875 24.609375 -1.421875 
Q 20.21875 -1.421875 15.453125 -0.5625 
Q 10.6875 0.296875 5.421875 2 
L 5.421875 11.28125 
Q 10.40625 8.6875 15.234375 7.390625 
Q 20.0625 6.109375 24.8125 6.109375 
Q 31.15625 6.109375 34.5625 8.28125 
Q 37.984375 10.453125 37.984375 14.40625 
Q 37.984375 18.0625 35.515625 20.015625 
Q 33.0625 21.96875 24.703125 23.78125 
L 21.578125 24.515625 
Q 13.234375 26.265625 9.515625 29.90625 
Q 5.8125 33.546875 5.8125 39.890625 
Q 5.8125 47.609375 11.28125 51.796875 
Q 16.75 56 26.8125 56 
Q 31.78125 56 36.171875 55.265625 
Q 40.578125 54.546875 44.28125 53.078125 
" id="DejaVuSans-73"/>
     </defs>
     <g transform="translate(192.678125 280.276563)scale(0.1 -0.1)">
      <use xlink:href="#DejaVuSans-44"/>
      <use x="77.001953" xlink:href="#DejaVuSans-61"/>
      <use x="138.28125" xlink:href="#DejaVuSans-74"/>
      <use x="177.490234" xlink:href="#DejaVuSans-61"/>
      <use x="238.769531" xlink:href="#DejaVuSans-20"/>
      <use x="270.556641" xlink:href="#DejaVuSans-50"/>
      <use x="330.8125" xlink:href="#DejaVuSans-6f"/>
      <use x="391.994141" xlink:href="#DejaVuSans-69"/>
      <use x="419.777344" xlink:href="#DejaVuSans-6e"/>
      <use x="483.15625" xlink:href="#DejaVuSans-74"/>
      <use x="522.365234" xlink:href="#DejaVuSans-73"/>
     </g>
    </g>
   </g>
   <g id="matplotlib.axis_2">
    <g id="ytick_1">
     <g id="line2d_15">
      <path clip-path="url(#pda0a163d1c)" d="M 54 221.889387 
L 388.8 221.889387 
" style="fill:none;stroke:#b0b0b0;stroke-linecap:square;stroke-width:0.8;"/>
     </g>
     <g id="line2d_16">
      <defs>
       <path d="M 0 0 
L -3.5 0 
" id="mdda39f3682" style="stroke:#000000;stroke-width:0.8;"/>
      </defs>
      <g>
       <use style="stroke:#000000;stroke-width:0.8;" x="54" xlink:href="#mdda39f3682" y="221.889387"/>
      </g>
     </g>
     <g id="text_9">
      <!-- 1300 -->
      <g transform="translate(21.55 225.688606)scale(0.1 -0.1)">
       <use xlink:href="#DejaVuSans-31"/>
       <use x="63.623047" xlink:href="#DejaVuSans-33"/>
       <use x="127.246094" xlink:href="#DejaVuSans-30"/>
       <use x="190.869141" xlink:href="#DejaVuSans-30"/>
      </g>
     </g>
    </g>
    <g id="ytick_2">
     <g id="line2d_17">
      <path clip-path="url(#pda0a163d1c)" d="M 54 175.918985 
L 388.8 175.918985 
" style="fill:none;stroke:#b0b0b0;stroke-linecap:square;stroke-width:0.8;"/>
     </g>
     <g id="line2d_18">
      <g>
       <use style="stroke:#000000;stroke-width:0.8;" x="54" xlink:href="#mdda39f3682" y="175.918985"/>
      </g>
     </g>
     <g id="text_10">
      <!-- 1350 -->
      <g transform="translate(21.55 179.718204)scale(0.1 -0.1)">
       <use xlink:href="#DejaVuSans-31"/>
       <use x="63.623047" xlink:href="#DejaVuSans-33"/>
       <use x="127.246094" xlink:href="#DejaVuSans-35"/>
       <use x="190.869141" xlink:href="#DejaVuSans-30"/>
      </g>
     </g>
    </g>
    <g id="ytick_3">
     <g id="line2d_19">
      <path clip-path="url(#pda0a163d1c)" d="M 54 129.948584 
L 388.8 129.948584 
" style="fill:none;stroke:#b0b0b0;stroke-linecap:square;stroke-width:0.8;"/>
     </g>
     <g id="line2d_20">
      <g>
       <use style="stroke:#000000;stroke-width:0.8;" x="54" xlink:href="#mdda39f3682" y="129.948584"/>
      </g>
     </g>
     <g id="text_11">
      <!-- 1400 -->
      <defs>
       <path d="M 37.796875 64.3125 
L 12.890625 25.390625 
L 37.796875 25.390625 
z
M 35.203125 72.90625 
L 47.609375 72.90625 
L 47.609375 25.390625 
L 58.015625 25.390625 
L 58.015625 17.1875 
L 47.609375 17.1875 
L 47.609375 0 
L 37.796875 0 
L 37.796875 17.1875 
L 4.890625 17.1875 
L 4.890625 26.703125 
z
" id="DejaVuSans-34"/>
      </defs>
      <g transform="translate(21.55 133.747802)scale(0.1 -0.1)">
       <use xlink:href="#DejaVuSans-31"/>
       <use x="63.623047" xlink:href="#DejaVuSans-34"/>
       <use x="127.246094" xlink:href="#DejaVuSans-30"/>
       <use x="190.869141" xlink:href="#DejaVuSans-30"/>
      </g>
     </g>
    </g>
    <g id="ytick_4">
     <g id="line2d_21">
      <path clip-path="url(#pda0a163d1c)" d="M 54 83.978182 
L 388.8 83.978182 
" style="fill:none;stroke:#b0b0b0;stroke-linecap:square;stroke-width:0.8;"/>
     </g>
     <g id="line2d_22">
      <g>
       <use style="stroke:#000000;stroke-width:0.8;" x="54" xlink:href="#mdda39f3682" y="83.978182"/>
      </g>
     </g>
     <g id="text_12">
      <!-- 1450 -->
      <g transform="translate(21.55 87.777401)scale(0.1 -0.1)">
       <use xlink:href="#DejaVuSans-31"/>
       <use x="63.623047" xlink:href="#DejaVuSans-34"/>
       <use x="127.246094" xlink:href="#DejaVuSans-35"/>
       <use x="190.869141" xlink:href="#DejaVuSans-30"/>
      </g>
     </g>
    </g>
    <g id="ytick_5">
     <g id="line2d_23">
      <path clip-path="url(#pda0a163d1c)" d="M 54 38.00778 
L 388.8 38.00778 
" style="fill:none;stroke:#b0b0b0;stroke-linecap:square;stroke-width:0.8;"/>
     </g>
     <g id="line2d_24">
      <g>
       <use style="stroke:#000000;stroke-width:0.8;" x="54" xlink:href="#mdda39f3682" y="38.00778"/>
      </g>
     </g>
     <g id="text_13">
      <!-- 1500 -->
      <g transform="translate(21.55 41.806999)scale(0.1 -0.1)">
       <use xlink:href="#DejaVuSans-31"/>
       <use x="63.623047" xlink:href="#DejaVuSans-35"/>
       <use x="127.246094" xlink:href="#DejaVuSans-30"/>
       <use x="190.869141" xlink:href="#DejaVuSans-30"/>
      </g>
     </g>
    </g>
    <g id="text_14">
     <!-- Detector Ouput -->
     <defs>
      <path d="M 56.203125 29.59375 
L 56.203125 25.203125 
L 14.890625 25.203125 
Q 15.484375 15.921875 20.484375 11.0625 
Q 25.484375 6.203125 34.421875 6.203125 
Q 39.59375 6.203125 44.453125 7.46875 
Q 49.3125 8.734375 54.109375 11.28125 
L 54.109375 2.78125 
Q 49.265625 0.734375 44.1875 -0.34375 
Q 39.109375 -1.421875 33.890625 -1.421875 
Q 20.796875 -1.421875 13.15625 6.1875 
Q 5.515625 13.8125 5.515625 26.8125 
Q 5.515625 40.234375 12.765625 48.109375 
Q 20.015625 56 32.328125 56 
Q 43.359375 56 49.78125 48.890625 
Q 56.203125 41.796875 56.203125 29.59375 
M 47.21875 32.234375 
Q 47.125 39.59375 43.09375 43.984375 
Q 39.0625 48.390625 32.421875 48.390625 
Q 24.90625 48.390625 20.390625 44.140625 
Q 15.875 39.890625 15.1875 32.171875 
z
" id="DejaVuSans-65"/>
      <path d="M 48.78125 52.59375 
L 48.78125 44.1875 
Q 44.96875 46.296875 41.140625 47.34375 
Q 37.3125 48.390625 33.40625 48.390625 
Q 24.65625 48.390625 19.8125 42.84375 
Q 14.984375 37.3125 14.984375 27.296875 
Q 14.984375 17.28125 19.8125 11.734375 
Q 24.65625 6.203125 33.40625 6.203125 
Q 37.3125 6.203125 41.140625 7.25 
Q 44.96875 8.296875 48.78125 10.40625 
L 48.78125 2.09375 
Q 45.015625 0.34375 40.984375 -0.53125 
Q 36.96875 -1.421875 32.421875 -1.421875 
Q 20.0625 -1.421875 12.78125 6.34375 
Q 5.515625 14.109375 5.515625 27.296875 
Q 5.515625 40.671875 12.859375 48.328125 
Q 20.21875 56 33.015625 56 
Q 37.15625 56 41.109375 55.140625 
Q 45.0625 54.296875 48.78125 52.59375 
" id="DejaVuSans-63"/>
      <path d="M 41.109375 46.296875 
Q 39.59375 47.171875 37.8125 47.578125 
Q 36.03125 48 33.890625 48 
Q 26.265625 48 22.1875 43.046875 
Q 18.109375 38.09375 18.109375 28.8125 
L 18.109375 0 
L 9.078125 0 
L 9.078125 54.6875 
L 18.109375 54.6875 
L 18.109375 46.1875 
Q 20.953125 51.171875 25.484375 53.578125 
Q 30.03125 56 36.53125 56 
Q 37.453125 56 38.578125 55.875 
Q 39.703125 55.765625 41.0625 55.515625 
z
" id="DejaVuSans-72"/>
      <path d="M 39.40625 66.21875 
Q 28.65625 66.21875 22.328125 58.203125 
Q 16.015625 50.203125 16.015625 36.375 
Q 16.015625 22.609375 22.328125 14.59375 
Q 28.65625 6.59375 39.40625 6.59375 
Q 50.140625 6.59375 56.421875 14.59375 
Q 62.703125 22.609375 62.703125 36.375 
Q 62.703125 50.203125 56.421875 58.203125 
Q 50.140625 66.21875 39.40625 66.21875 
M 39.40625 74.21875 
Q 54.734375 74.21875 63.90625 63.9375 
Q 73.09375 53.65625 73.09375 36.375 
Q 73.09375 19.140625 63.90625 8.859375 
Q 54.734375 -1.421875 39.40625 -1.421875 
Q 24.03125 -1.421875 14.8125 8.828125 
Q 5.609375 19.09375 5.609375 36.375 
Q 5.609375 53.65625 14.8125 63.9375 
Q 24.03125 74.21875 39.40625 74.21875 
" id="DejaVuSans-4f"/>
      <path d="M 8.5 21.578125 
L 8.5 54.6875 
L 17.484375 54.6875 
L 17.484375 21.921875 
Q 17.484375 14.15625 20.5 10.265625 
Q 23.53125 6.390625 29.59375 6.390625 
Q 36.859375 6.390625 41.078125 11.03125 
Q 45.3125 15.671875 45.3125 23.6875 
L 45.3125 54.6875 
L 54.296875 54.6875 
L 54.296875 0 
L 45.3125 0 
L 45.3125 8.40625 
Q 42.046875 3.421875 37.71875 1 
Q 33.40625 -1.421875 27.6875 -1.421875 
Q 18.265625 -1.421875 13.375 4.4375 
Q 8.5 10.296875 8.5 21.578125 
M 31.109375 56 
z
" id="DejaVuSans-75"/>
      <path d="M 18.109375 8.203125 
L 18.109375 -20.796875 
L 9.078125 -20.796875 
L 9.078125 54.6875 
L 18.109375 54.6875 
L 18.109375 46.390625 
Q 20.953125 51.265625 25.265625 53.625 
Q 29.59375 56 35.59375 56 
Q 45.5625 56 51.78125 48.09375 
Q 58.015625 40.1875 58.015625 27.296875 
Q 58.015625 14.40625 51.78125 6.484375 
Q 45.5625 -1.421875 35.59375 -1.421875 
Q 29.59375 -1.421875 25.265625 0.953125 
Q 20.953125 3.328125 18.109375 8.203125 
M 48.6875 27.296875 
Q 48.6875 37.203125 44.609375 42.84375 
Q 40.53125 48.484375 33.40625 48.484375 
Q 26.265625 48.484375 22.1875 42.84375 
Q 18.109375 37.203125 18.109375 27.296875 
Q 18.109375 17.390625 22.1875 11.75 
Q 26.265625 6.109375 33.40625 6.109375 
Q 40.53125 6.109375 44.609375 11.75 
Q 48.6875 17.390625 48.6875 27.296875 
" id="DejaVuSans-70"/>
     </defs>
     <g transform="translate(15.470312 182.064375)rotate(-90)scale(0.1 -0.1)">
      <use xlink:href="#DejaVuSans-44"/>
      <use x="77.001953" xlink:href="#DejaVuSans-65"/>
      <use x="138.525391" xlink:href="#DejaVuSans-74"/>
      <use x="177.734375" xlink:href="#DejaVuSans-65"/>
      <use x="239.257812" xlink:href="#DejaVuSans-63"/>
      <use x="294.238281" xlink:href="#DejaVuSans-74"/>
      <use x="333.447266" xlink:href="#DejaVuSans-6f"/>
      <use x="394.628906" xlink:href="#DejaVuSans-72"/>
      <use x="435.742188" xlink:href="#DejaVuSans-20"/>
      <use x="467.529297" xlink:href="#DejaVuSans-4f"/>
      <use x="546.240234" xlink:href="#DejaVuSans-75"/>
      <use x="609.619141" xlink:href="#DejaVuSans-70"/>
      <use x="673.095703" xlink:href="#DejaVuSans-75"/>
      <use x="736.474609" xlink:href="#DejaVuSans-74"/>
     </g>
    </g>
   </g>
   <g id="line2d_25">
    <path clip-path="url(#pda0a163d1c)" d="M 69.218182 229.244651 
L 69.309747 231.083467 
L 69.401313 232.002875 
L 69.492878 231.083467 
L 69.676009 232.002875 
L 70.042271 226.486427 
L 70.225402 231.083467 
L 70.408533 228.325243 
L 70.500098 229.244651 
L 70.591664 229.244651 
L 70.774795 231.083467 
L 71.049491 233.841691 
L 71.415753 231.083467 
L 71.507319 231.083467 
L 71.69045 230.164059 
L 71.782015 218.211755 
L 71.873581 145.57852 
L 72.056712 189.710106 
L 72.148277 190.629514 
L 72.331408 189.710106 
L 72.422973 189.710106 
L 72.606104 190.629514 
L 72.880801 190.629514 
L 72.972366 187.87129 
L 73.063932 188.790698 
L 73.155497 187.87129 
L 73.338628 190.629514 
L 73.430194 188.790698 
L 73.70489 190.629514 
L 73.796456 188.790698 
L 73.888021 190.629514 
L 74.071152 188.790698 
L 74.345848 191.548922 
L 74.528979 189.710106 
L 74.71211 190.629514 
L 74.803676 190.629514 
L 74.895241 191.548922 
L 74.986807 190.629514 
L 75.261503 193.387738 
L 75.353069 191.548922 
L 75.444634 194.307146 
L 75.627765 192.46833 
L 75.71933 191.548922 
L 75.810896 192.46833 
L 75.902461 190.629514 
L 76.177158 192.46833 
L 76.268723 192.46833 
L 76.360289 193.387738 
L 76.451854 190.629514 
L 76.634985 192.46833 
L 76.726551 191.548922 
L 77.001247 193.387738 
L 77.184378 200.743002 
L 77.916902 192.46833 
L 78.008467 194.307146 
L 78.191598 191.548922 
L 78.283164 190.629514 
L 78.374729 192.46833 
L 78.466295 189.710106 
L 78.55786 190.629514 
L 78.649426 189.710106 
L 78.832557 192.46833 
L 78.924122 191.548922 
L 79.015688 191.548922 
L 79.198819 193.387738 
L 79.473515 191.548922 
L 79.656646 192.46833 
L 79.748211 190.629514 
L 80.114473 193.387738 
L 80.297604 190.629514 
L 80.480735 191.548922 
L 80.755432 189.710106 
L 80.938563 191.548922 
L 81.213259 191.548922 
L 81.304824 190.629514 
L 81.39639 191.548922 
L 81.579521 190.629514 
L 82.037348 194.307146 
L 82.128914 193.387738 
L 82.220479 194.307146 
L 82.40361 193.387738 
L 82.495176 193.387738 
L 82.586741 194.307146 
L 82.678307 191.548922 
L 82.769872 193.387738 
L 82.953003 190.629514 
L 83.044568 191.548922 
L 83.227699 195.226554 
L 83.41083 191.548922 
L 83.593961 193.387738 
L 83.685527 193.387738 
L 83.777092 192.46833 
L 83.960223 194.307146 
L 84.143354 191.548922 
L 84.23492 193.387738 
L 84.418051 192.46833 
L 84.509616 192.46833 
L 84.601181 193.387738 
L 84.692747 190.629514 
L 84.875878 192.46833 
L 84.967443 192.46833 
L 85.059009 193.387738 
L 85.24214 191.548922 
L 85.333705 193.387738 
L 85.516836 192.46833 
L 85.608402 194.307146 
L 85.791533 192.46833 
L 85.974664 194.307146 
L 86.24936 190.629514 
L 86.340926 191.548922 
L 86.432491 195.226554 
L 86.615622 191.548922 
L 86.798753 193.387738 
L 86.981884 190.629514 
L 87.073449 192.46833 
L 87.165015 191.548922 
L 87.348146 195.226554 
L 87.439711 194.307146 
L 87.622842 195.226554 
L 87.714408 194.307146 
L 87.897539 191.548922 
L 87.989104 193.387738 
L 88.08067 191.548922 
L 88.2638 194.307146 
L 88.355366 191.548922 
L 88.538497 194.307146 
L 88.904759 191.548922 
L 89.08789 193.387738 
L 89.179455 193.387738 
L 89.271021 194.307146 
L 89.362586 193.387738 
L 89.545717 194.307146 
L 89.637283 193.387738 
L 89.728848 194.307146 
L 89.820414 193.387738 
L 89.911979 195.226554 
L 90.09511 190.629514 
L 90.186675 191.548922 
L 90.369806 194.307146 
L 90.552937 193.387738 
L 90.919199 193.387738 
L 91.10233 195.226554 
L 91.285461 191.548922 
L 91.377027 194.307146 
L 91.468592 193.387738 
L 91.560158 194.307146 
L 91.743288 191.548922 
L 91.834854 192.46833 
L 92.10955 195.226554 
L 92.201116 193.387738 
L 92.292681 194.307146 
L 92.567378 190.629514 
L 92.658943 191.548922 
L 92.842074 193.387738 
L 92.93364 192.46833 
L 93.025205 194.307146 
L 93.208336 192.46833 
L 93.299902 193.387738 
L 93.391467 196.145962 
L 93.483032 195.226554 
L 93.574598 197.06537 
L 93.849294 194.307146 
L 93.94086 197.06537 
L 94.215556 195.226554 
L 94.307122 195.226554 
L 94.490253 197.06537 
L 94.94808 192.46833 
L 95.039646 194.307146 
L 95.131211 193.387738 
L 95.222777 194.307146 
L 95.314342 193.387738 
L 95.405907 196.145962 
L 95.497473 193.387738 
L 95.680604 195.226554 
L 95.772169 195.226554 
L 95.9553 194.307146 
L 96.321562 197.06537 
L 96.596259 195.226554 
L 96.77939 196.145962 
L 96.962521 200.743002 
L 97.054086 199.823594 
L 97.237217 196.145962 
L 97.511913 194.307146 
L 97.603479 194.307146 
L 97.695044 192.46833 
L 97.878175 193.387738 
L 97.969741 192.46833 
L 98.244437 194.307146 
L 98.427568 192.46833 
L 98.519134 195.226554 
L 98.610699 193.387738 
L 98.702265 196.145962 
L 98.79383 195.226554 
L 98.885395 196.145962 
L 99.160092 193.387738 
L 99.251657 195.226554 
L 99.434788 194.307146 
L 99.526354 195.226554 
L 99.709485 194.307146 
L 99.80105 194.307146 
L 99.892616 192.46833 
L 99.984181 193.387738 
L 100.075747 192.46833 
L 100.167312 193.387738 
L 100.258878 191.548922 
L 100.350443 192.46833 
L 100.442009 191.548922 
L 100.716705 193.387738 
L 100.80827 193.387738 
L 100.991401 190.629514 
L 101.174532 193.387738 
L 101.357663 192.46833 
L 101.540794 195.226554 
L 101.63236 193.387738 
L 101.815491 194.307146 
L 101.907056 194.307146 
L 102.090187 192.46833 
L 102.181753 193.387738 
L 102.364883 190.629514 
L 102.548014 194.307146 
L 102.63958 192.46833 
L 102.731145 193.387738 
L 102.822711 192.46833 
L 102.914276 193.387738 
L 103.005842 191.548922 
L 103.188973 193.387738 
L 103.280538 192.46833 
L 103.463669 193.387738 
L 103.555235 192.46833 
L 103.738366 194.307146 
L 103.921497 193.387738 
L 104.013062 194.307146 
L 104.196193 191.548922 
L 104.287758 194.307146 
L 104.379324 192.46833 
L 104.562455 193.387738 
L 104.745586 193.387738 
L 104.837151 191.548922 
L 105.111848 193.387738 
L 105.294979 192.46833 
L 105.386544 192.46833 
L 105.47811 193.387738 
L 105.661241 191.548922 
L 105.844372 192.46833 
L 105.935937 192.46833 
L 106.027502 191.548922 
L 106.119068 193.387738 
L 106.302199 192.46833 
L 106.393764 193.387738 
L 106.48533 192.46833 
L 106.576895 193.387738 
L 106.760026 192.46833 
L 106.851592 192.46833 
L 107.034723 193.387738 
L 107.126288 193.387738 
L 107.217854 195.226554 
L 107.309419 194.307146 
L 107.49255 196.145962 
L 107.675681 194.307146 
L 107.767246 196.145962 
L 107.858812 193.387738 
L 108.041943 194.307146 
L 108.133508 194.307146 
L 108.316639 195.226554 
L 108.49977 192.46833 
L 108.591336 192.46833 
L 108.682901 193.387738 
L 108.774467 192.46833 
L 108.866032 193.387738 
L 108.957598 192.46833 
L 109.140729 194.307146 
L 109.232294 195.226554 
L 109.50699 192.46833 
L 109.781687 195.226554 
L 110.147949 191.548922 
L 110.422645 193.387738 
L 110.880473 193.387738 
L 110.972038 196.145962 
L 111.429865 192.46833 
L 111.612996 192.46833 
L 111.796127 194.307146 
L 111.887693 194.307146 
L 111.979258 195.226554 
L 112.162389 192.46833 
L 112.34552 193.387738 
L 112.528651 191.548922 
L 112.620217 192.46833 
L 112.803348 191.548922 
L 112.894913 191.548922 
L 112.986479 193.387738 
L 113.169609 161.208457 
L 113.261175 162.127865 
L 113.444306 160.289049 
L 113.535871 159.369641 
L 113.719002 156.611416 
L 113.902133 154.7726 
L 113.993699 155.692008 
L 114.17683 152.933784 
L 114.359961 154.7726 
L 114.451526 155.692008 
L 114.634657 154.7726 
L 114.726223 155.692008 
L 114.909353 154.7726 
L 115.000919 154.7726 
L 115.092484 152.933784 
L 115.18405 153.853192 
L 115.275615 152.933784 
L 115.458746 153.853192 
L 115.550312 152.933784 
L 115.641877 153.853192 
L 115.733443 152.933784 
L 115.825008 153.853192 
L 115.916574 152.933784 
L 116.099705 154.7726 
L 116.19127 155.692008 
L 116.374401 153.853192 
L 116.465967 153.853192 
L 116.557532 152.933784 
L 116.923794 157.530825 
L 117.015359 155.692008 
L 117.19849 157.530825 
L 117.381621 153.853192 
L 117.564752 154.7726 
L 117.747883 153.853192 
L 118.02258 155.692008 
L 118.205711 155.692008 
L 118.388841 157.530825 
L 118.480407 156.611416 
L 118.571972 158.450233 
L 118.663538 157.530825 
L 118.755103 159.369641 
L 119.121365 156.611416 
L 119.304496 159.369641 
L 119.487627 155.692008 
L 119.579193 157.530825 
L 119.762324 155.692008 
L 119.945455 157.530825 
L 120.03702 156.611416 
L 120.311716 159.369641 
L 120.403282 157.530825 
L 120.586413 160.289049 
L 120.677978 159.369641 
L 120.861109 156.611416 
L 121.04424 157.530825 
L 121.135806 157.530825 
L 121.318937 155.692008 
L 121.502068 158.450233 
L 121.593633 158.450233 
L 121.776764 157.530825 
L 121.959895 157.530825 
L 122.143026 156.611416 
L 122.234591 156.611416 
L 122.417722 158.450233 
L 122.509288 157.530825 
L 122.600853 159.369641 
L 122.783984 156.611416 
L 122.967115 159.369641 
L 123.058681 159.369641 
L 123.150246 161.208457 
L 123.424943 157.530825 
L 123.516508 157.530825 
L 123.699639 160.289049 
L 123.791204 160.289049 
L 123.88277 159.369641 
L 124.065901 161.208457 
L 124.340597 159.369641 
L 124.523728 159.369641 
L 124.706859 161.208457 
L 124.88999 161.208457 
L 124.981556 162.127865 
L 125.164687 160.289049 
L 125.439383 162.127865 
L 125.714079 157.530825 
L 125.988776 162.127865 
L 126.263472 159.369641 
L 126.355038 160.289049 
L 126.446603 159.369641 
L 126.629734 162.127865 
L 126.7213 159.369641 
L 126.904431 160.289049 
L 126.995996 160.289049 
L 127.087562 161.208457 
L 127.270692 160.289049 
L 127.362258 160.289049 
L 127.453823 159.369641 
L 127.636954 163.047273 
L 127.820085 160.289049 
L 128.003216 163.047273 
L 128.277913 161.208457 
L 128.461044 162.127865 
L 128.552609 162.127865 
L 128.73574 161.208457 
L 128.827306 161.208457 
L 128.918871 160.289049 
L 129.010436 161.208457 
L 129.102002 160.289049 
L 129.468264 163.047273 
L 129.559829 162.127865 
L 129.651395 163.047273 
L 129.74296 162.127865 
L 129.834526 163.966681 
L 129.926091 163.047273 
L 130.200788 165.805497 
L 130.292353 163.047273 
L 130.383919 163.966681 
L 130.658615 162.127865 
L 130.750181 162.127865 
L 130.933311 163.966681 
L 131.024877 162.127865 
L 131.116442 163.966681 
L 131.208008 163.047273 
L 131.391139 164.886089 
L 131.57427 162.127865 
L 131.757401 164.886089 
L 131.940532 164.886089 
L 132.123663 162.127865 
L 132.306794 162.127865 
L 132.398359 161.208457 
L 132.58149 163.966681 
L 132.673055 163.047273 
L 132.856186 163.047273 
L 132.947752 162.127865 
L 133.039317 163.966681 
L 133.130883 162.127865 
L 133.222448 163.966681 
L 133.314014 162.127865 
L 133.405579 163.047273 
L 133.58871 161.208457 
L 134.229669 166.724905 
L 134.504365 162.127865 
L 134.59593 163.047273 
L 134.687496 162.127865 
L 135.053758 164.886089 
L 135.145323 163.047273 
L 135.328454 164.886089 
L 135.511585 162.127865 
L 135.603151 162.127865 
L 135.877847 163.966681 
L 136.060978 163.966681 
L 136.152543 165.805497 
L 136.335674 163.047273 
L 136.518805 164.886089 
L 136.701936 163.047273 
L 136.793502 162.127865 
L 136.976633 163.966681 
L 137.251329 162.127865 
L 137.342895 163.966681 
L 137.43446 163.047273 
L 137.526026 164.886089 
L 137.709157 163.966681 
L 137.983853 165.805497 
L 138.350115 161.208457 
L 138.44168 162.127865 
L 138.624811 163.966681 
L 138.716377 163.966681 
L 138.807942 163.047273 
L 139.082639 165.805497 
L 139.357335 163.966681 
L 139.540466 164.886089 
L 139.632032 164.886089 
L 139.815162 162.127865 
L 139.906728 164.886089 
L 140.181424 161.208457 
L 140.456121 163.966681 
L 140.547686 163.047273 
L 140.639252 163.966681 
L 140.822383 163.047273 
L 140.913948 163.047273 
L 141.005514 161.208457 
L 141.188645 163.966681 
L 141.463341 161.208457 
L 141.829603 163.966681 
L 141.921168 163.047273 
L 142.012734 163.966681 
L 142.104299 163.047273 
L 142.28743 163.966681 
L 142.378996 163.966681 
L 142.562127 162.127865 
L 142.653692 163.047273 
L 142.745258 160.289049 
L 142.928389 161.208457 
L 143.019954 160.289049 
L 143.203085 163.047273 
L 143.29465 161.208457 
L 143.386216 162.127865 
L 143.477781 164.886089 
L 143.660912 163.047273 
L 143.935609 164.886089 
L 144.027174 162.127865 
L 144.301871 163.966681 
L 144.393436 163.966681 
L 144.668133 162.127865 
L 144.851264 163.047273 
L 145.034394 162.127865 
L 145.12596 163.966681 
L 145.309091 162.127865 
L 145.400656 161.208457 
L 145.675353 163.047273 
L 145.766918 162.127865 
L 145.950049 164.886089 
L 146.041615 162.127865 
L 146.13318 163.966681 
L 146.316311 162.127865 
L 146.407877 163.966681 
L 146.499442 162.127865 
L 146.682573 163.966681 
L 146.865704 165.805497 
L 147.048835 163.966681 
L 147.1404 163.966681 
L 147.323531 164.886089 
L 147.689793 161.208457 
L 148.147621 164.886089 
L 148.330752 162.127865 
L 148.422317 163.966681 
L 148.513883 163.047273 
L 148.605448 164.886089 
L 148.697013 163.966681 
L 148.788579 164.886089 
L 148.880144 163.047273 
L 149.063275 164.886089 
L 149.154841 163.966681 
L 149.246406 165.805497 
L 149.429537 163.966681 
L 149.521103 166.724905 
L 149.704234 163.047273 
L 149.887365 165.805497 
L 150.070496 163.966681 
L 150.253627 163.966681 
L 150.436757 162.127865 
L 150.619888 163.966681 
L 150.894585 162.127865 
L 150.98615 163.966681 
L 151.169281 163.047273 
L 151.443978 164.886089 
L 151.535543 164.886089 
L 151.627109 163.966681 
L 151.718674 164.886089 
L 151.901805 163.047273 
L 152.084936 163.047273 
L 152.176501 163.966681 
L 152.268067 163.047273 
L 152.451198 163.966681 
L 152.542763 162.127865 
L 152.725894 163.047273 
L 152.81746 163.047273 
L 153.000591 162.127865 
L 153.183722 163.966681 
L 153.275287 164.886089 
L 153.549984 163.047273 
L 153.733115 163.047273 
L 153.82468 163.966681 
L 154.007811 162.127865 
L 154.190942 163.047273 
L 154.465638 109.721607 
L 154.648769 109.721607 
L 155.015031 105.124567 
L 155.106597 106.043975 
L 155.198162 106.043975 
L 155.472859 108.802199 
L 155.564424 105.124567 
L 155.655989 106.963383 
L 155.747555 106.043975 
L 155.930686 107.882791 
L 156.66321 100.527526 
L 156.846341 104.205159 
L 156.937906 104.205159 
L 157.212603 101.446934 
L 157.395734 106.043975 
L 157.578864 104.205159 
L 157.67043 106.043975 
L 157.761995 104.205159 
L 157.853561 105.124567 
L 157.945126 104.205159 
L 158.128257 106.043975 
L 158.311388 105.124567 
L 158.586085 105.124567 
L 158.67765 103.285751 
L 158.860781 105.124567 
L 159.043912 105.124567 
L 159.227043 102.366342 
L 159.318608 104.205159 
L 159.410174 103.285751 
L 159.501739 105.124567 
L 159.593305 104.205159 
L 159.776436 105.124567 
L 159.959567 104.205159 
L 160.051132 106.043975 
L 160.325829 104.205159 
L 160.50896 105.124567 
L 160.783656 102.366342 
L 160.875222 103.285751 
L 160.966787 102.366342 
L 161.149918 104.205159 
L 161.241483 102.366342 
L 161.424614 104.205159 
L 161.51618 102.366342 
L 161.607745 105.124567 
L 161.882442 103.285751 
L 161.974007 104.205159 
L 162.065573 103.285751 
L 162.157138 106.043975 
L 162.248704 104.205159 
L 162.340269 105.124567 
L 162.431835 103.285751 
L 162.5234 105.124567 
L 162.614966 104.205159 
L 162.889662 106.963383 
L 162.981227 104.205159 
L 163.164358 106.043975 
L 163.255924 106.043975 
L 163.347489 105.124567 
L 163.439055 102.366342 
L 163.53062 105.124567 
L 163.622186 104.205159 
L 163.713751 105.124567 
L 163.896882 104.205159 
L 163.988448 106.043975 
L 164.171579 103.285751 
L 164.263144 104.205159 
L 164.35471 104.205159 
L 164.446275 103.285751 
L 164.53784 105.124567 
L 164.629406 104.205159 
L 164.812537 106.043975 
L 164.995668 106.963383 
L 165.087233 103.285751 
L 165.36193 105.124567 
L 165.545061 104.205159 
L 165.636626 106.043975 
L 165.819757 102.366342 
L 166.002888 105.124567 
L 166.094454 105.124567 
L 166.186019 103.285751 
L 166.277585 106.043975 
L 166.460715 104.205159 
L 166.643846 106.043975 
L 166.826977 106.043975 
L 167.010108 104.205159 
L 167.284805 106.043975 
L 167.37637 104.205159 
L 167.559501 106.043975 
L 167.651067 106.043975 
L 167.834198 102.366342 
L 168.017329 105.124567 
L 168.108894 103.285751 
L 168.200459 105.124567 
L 168.38359 104.205159 
L 168.566721 105.124567 
L 168.658287 105.124567 
L 169.024549 107.882791 
L 169.116114 107.882791 
L 169.390811 106.043975 
L 169.665507 106.043975 
L 169.757073 107.882791 
L 169.940203 103.285751 
L 170.2149 105.124567 
L 170.398031 104.205159 
L 170.672727 104.205159 
L 170.764293 105.124567 
L 170.947424 103.285751 
L 171.038989 105.124567 
L 171.22212 104.205159 
L 171.496817 106.043975 
L 171.588382 105.124567 
L 171.771513 106.043975 
L 171.954644 104.205159 
L 172.046209 105.124567 
L 172.22934 103.285751 
L 172.320906 103.285751 
L 172.412471 105.124567 
L 172.504037 103.285751 
L 172.870299 106.043975 
L 172.961864 106.043975 
L 173.144995 103.285751 
L 173.328126 104.205159 
L 173.419691 104.205159 
L 173.694388 101.446934 
L 173.877519 103.285751 
L 174.06065 104.205159 
L 174.152215 103.285751 
L 174.426912 106.043975 
L 174.518477 105.124567 
L 174.610043 106.043975 
L 174.701608 105.124567 
L 174.793174 102.366342 
L 174.976305 104.205159 
L 175.06787 103.285751 
L 175.159436 105.124567 
L 175.251001 104.205159 
L 175.434132 105.124567 
L 175.617263 105.124567 
L 175.708828 104.205159 
L 175.891959 106.963383 
L 176.07509 104.205159 
L 176.166656 104.205159 
L 176.441352 102.366342 
L 176.532918 103.285751 
L 176.624483 102.366342 
L 176.89918 106.963383 
L 176.990745 104.205159 
L 177.08231 105.124567 
L 177.265441 101.446934 
L 177.448572 105.124567 
L 177.540138 103.285751 
L 177.814834 105.124567 
L 177.997965 104.205159 
L 178.089531 104.205159 
L 178.181096 106.043975 
L 178.364227 105.124567 
L 178.455793 105.124567 
L 178.638924 106.043975 
L 178.730489 103.285751 
L 178.822054 105.124567 
L 178.91362 104.205159 
L 179.005185 106.043975 
L 179.646144 100.527526 
L 179.737709 101.446934 
L 180.012406 99.608118 
L 180.103971 101.446934 
L 180.287102 99.608118 
L 180.561798 99.608118 
L 180.836495 102.366342 
L 181.019626 101.446934 
L 181.111191 96.849894 
L 181.202757 97.769302 
L 181.294322 97.769302 
L 181.569019 99.608118 
L 181.660584 98.68871 
L 181.935281 101.446934 
L 182.118412 99.608118 
L 182.393108 101.446934 
L 182.576239 98.68871 
L 182.667804 99.608118 
L 182.75937 98.68871 
L 182.942501 100.527526 
L 183.034066 101.446934 
L 183.125632 98.68871 
L 183.400328 100.527526 
L 183.491894 99.608118 
L 183.583459 100.527526 
L 183.858156 98.68871 
L 183.949721 98.68871 
L 184.315983 101.446934 
L 184.407548 98.68871 
L 184.590679 100.527526 
L 184.77381 102.366342 
L 184.865376 101.446934 
L 184.956941 98.68871 
L 185.231638 101.446934 
L 185.506334 97.769302 
L 185.781031 103.285751 
L 185.872596 103.285751 
L 185.964161 105.124567 
L 186.238858 101.446934 
L 186.421989 100.527526 
L 186.513554 103.285751 
L 186.696685 102.366342 
L 186.788251 102.366342 
L 186.879816 103.285751 
L 187.062947 102.366342 
L 187.337644 104.205159 
L 187.429209 104.205159 
L 187.61234 106.043975 
L 187.795471 104.205159 
L 187.978602 106.963383 
L 188.161733 103.285751 
L 188.253298 103.285751 
L 188.344864 106.043975 
L 188.527995 102.366342 
L 188.61956 104.205159 
L 188.802691 102.366342 
L 188.894257 105.124567 
L 188.985822 104.205159 
L 189.168953 106.963383 
L 189.352084 106.963383 
L 189.443649 105.124567 
L 189.535215 106.043975 
L 189.718346 102.366342 
L 189.809911 106.043975 
L 190.084608 102.366342 
L 190.267739 104.205159 
L 190.45087 102.366342 
L 190.542435 103.285751 
L 190.634001 101.446934 
L 190.725566 103.285751 
L 190.908697 101.446934 
L 191.000263 102.366342 
L 191.091828 105.124567 
L 191.549655 100.527526 
L 191.641221 103.285751 
L 191.732786 101.446934 
L 192.007483 105.124567 
L 192.190614 102.366342 
L 192.282179 104.205159 
L 192.373745 103.285751 
L 192.46531 106.963383 
L 192.648441 105.124567 
L 192.831572 106.043975 
L 192.923138 106.043975 
L 193.106268 107.882791 
L 193.197834 106.963383 
L 193.380965 107.882791 
L 193.47253 107.882791 
L 193.838792 105.124567 
L 194.021923 106.043975 
L 194.113489 105.124567 
L 194.205054 101.446934 
L 194.388185 104.205159 
L 194.571316 103.285751 
L 194.754447 106.963383 
L 194.846012 105.124567 
L 195.029143 106.043975 
L 195.120709 105.124567 
L 195.212274 106.043975 
L 195.395405 102.366342 
L 195.670102 55.476533 
L 195.853233 51.798901 
L 196.036364 52.718309 
L 196.127929 50.879493 
L 196.219495 52.718309 
L 196.402626 49.960085 
L 196.585756 49.960085 
L 196.677322 49.040677 
L 196.952018 53.637717 
L 197.043584 51.798901 
L 197.135149 52.718309 
L 197.31828 51.798901 
L 197.409846 52.718309 
L 197.776108 49.960085 
L 197.867673 52.718309 
L 198.233935 48.121268 
L 198.417066 49.960085 
L 198.600197 48.121268 
L 198.691762 50.879493 
L 198.874893 49.960085 
L 199.14959 52.718309 
L 199.332721 51.798901 
L 199.515852 54.557125 
L 200.065245 49.040677 
L 200.431506 51.798901 
L 200.523072 55.476533 
L 200.706203 51.798901 
L 200.797768 51.798901 
L 200.980899 49.960085 
L 201.16403 53.637717 
L 201.255596 51.798901 
L 201.347161 52.718309 
L 201.438727 51.798901 
L 201.530292 52.718309 
L 201.621858 50.879493 
L 201.713423 51.798901 
L 201.804989 50.879493 
L 201.988119 55.476533 
L 202.262816 51.798901 
L 202.445947 55.476533 
L 202.812209 52.718309 
L 202.903774 52.718309 
L 202.99534 53.637717 
L 203.086905 51.798901 
L 203.453167 54.557125 
L 203.544733 54.557125 
L 203.727863 55.476533 
L 204.00256 51.798901 
L 204.094125 52.718309 
L 204.185691 52.718309 
L 204.368822 51.798901 
L 204.643518 53.637717 
L 204.735084 53.637717 
L 204.918215 52.718309 
L 205.101346 53.637717 
L 205.192911 51.798901 
L 205.467607 53.637717 
L 205.559173 53.637717 
L 205.925435 50.879493 
L 206.108566 50.879493 
L 206.291697 53.637717 
L 206.383262 52.718309 
L 206.566393 54.557125 
L 206.657959 54.557125 
L 206.84109 52.718309 
L 207.207351 49.960085 
L 207.298917 50.879493 
L 207.390482 54.557125 
L 207.573613 52.718309 
L 207.665179 55.476533 
L 208.123006 51.798901 
L 208.214572 52.718309 
L 208.306137 50.879493 
L 208.580834 53.637717 
L 208.672399 51.798901 
L 208.763965 53.637717 
L 208.85553 52.718309 
L 208.947096 53.637717 
L 209.038661 52.718309 
L 209.221792 54.557125 
L 209.404923 52.718309 
L 209.588054 51.798901 
L 209.679619 53.637717 
L 209.771185 50.879493 
L 210.045881 52.718309 
L 210.137447 52.718309 
L 210.412143 54.557125 
L 210.503709 53.637717 
L 210.595274 50.879493 
L 210.68684 52.718309 
L 210.778405 50.879493 
L 210.86997 52.718309 
L 210.961536 50.879493 
L 211.144667 51.798901 
L 211.236232 51.798901 
L 211.419363 53.637717 
L 211.510929 53.637717 
L 211.69406 50.879493 
L 211.877191 52.718309 
L 212.060322 53.637717 
L 212.243453 51.798901 
L 212.426584 51.798901 
L 212.518149 50.879493 
L 212.70128 51.798901 
L 212.792845 51.798901 
L 212.975976 52.718309 
L 213.067542 51.798901 
L 213.250673 52.718309 
L 213.342238 52.718309 
L 213.525369 53.637717 
L 213.616935 53.637717 
L 213.7085 50.879493 
L 213.800066 52.718309 
L 213.983197 51.798901 
L 214.074762 53.637717 
L 214.257893 52.718309 
L 214.349458 53.637717 
L 214.624155 51.798901 
L 214.71572 54.557125 
L 214.898851 49.040677 
L 215.081982 52.718309 
L 215.173548 55.476533 
L 215.265113 50.879493 
L 215.356679 51.798901 
L 215.448244 52.718309 
L 215.53981 50.879493 
L 215.631375 52.718309 
L 215.722941 51.798901 
L 215.906072 54.557125 
L 216.089202 52.718309 
L 216.180768 52.718309 
L 216.272333 51.798901 
L 216.455464 53.637717 
L 217.004857 53.637717 
L 217.187988 58.234757 
L 217.371119 54.557125 
L 217.55425 51.798901 
L 217.737381 55.476533 
L 217.920512 54.557125 
L 218.012077 56.395941 
L 218.195208 54.557125 
L 218.286774 55.476533 
L 218.378339 54.557125 
L 218.469905 55.476533 
L 218.653036 52.718309 
L 218.744601 52.718309 
L 218.836167 54.557125 
L 218.927732 53.637717 
L 219.019298 55.476533 
L 219.202429 52.718309 
L 219.293994 53.637717 
L 219.38556 50.879493 
L 219.660256 53.637717 
L 219.843387 52.718309 
L 220.026518 53.637717 
L 220.118083 52.718309 
L 220.484345 55.476533 
L 220.575911 54.557125 
L 220.759042 55.476533 
L 220.942173 52.718309 
L 221.125304 55.476533 
L 221.308435 55.476533 
L 221.491565 53.637717 
L 221.583131 49.960085 
L 221.674696 53.637717 
L 221.766262 50.879493 
L 221.857827 52.718309 
L 222.040958 50.879493 
L 222.224089 52.718309 
L 222.40722 55.476533 
L 222.590351 53.637717 
L 223.048179 49.040677 
L 223.231309 51.798901 
L 223.322875 48.121268 
L 223.41444 49.960085 
L 223.506006 46.282452 
L 223.872268 49.960085 
L 224.146964 46.282452 
L 224.330095 44.443636 
L 224.421661 46.282452 
L 224.604792 45.363044 
L 224.879488 47.20186 
L 224.971053 47.20186 
L 225.062619 49.040677 
L 225.154184 45.363044 
L 225.24575 47.20186 
L 225.337315 46.282452 
L 225.428881 47.20186 
L 225.612012 46.282452 
L 225.703577 46.282452 
L 225.886708 47.20186 
L 225.978274 47.20186 
L 226.161405 48.121268 
L 226.527667 45.363044 
L 226.619232 47.20186 
L 226.802363 46.282452 
L 226.893928 49.040677 
L 226.985494 46.282452 
L 227.168625 47.20186 
L 227.351756 47.20186 
L 227.534887 46.282452 
L 227.626452 47.20186 
L 227.718018 46.282452 
L 227.992714 49.040677 
L 228.08428 48.121268 
L 228.267411 49.040677 
L 228.542107 45.363044 
L 228.725238 48.121268 
L 228.816803 47.20186 
L 228.999934 49.960085 
L 229.0915 52.718309 
L 229.366196 50.879493 
L 229.549327 50.879493 
L 229.640893 51.798901 
L 229.824024 49.040677 
L 229.915589 52.718309 
L 230.190286 49.040677 
L 230.464982 49.040677 
L 230.648113 52.718309 
L 230.739678 50.879493 
L 231.014375 53.637717 
L 231.10594 52.718309 
L 231.289071 53.637717 
L 231.380637 53.637717 
L 231.472202 51.798901 
L 231.563768 53.637717 
L 231.655333 51.798901 
L 231.746899 52.718309 
L 231.838464 49.960085 
L 232.021595 51.798901 
L 232.204726 49.040677 
L 232.479422 53.637717 
L 232.662553 51.798901 
L 232.754119 53.637717 
L 232.845684 52.718309 
L 233.028815 55.476533 
L 233.120381 55.476533 
L 233.303512 53.637717 
L 233.395077 55.476533 
L 233.578208 52.718309 
L 233.761339 51.798901 
L 233.852904 53.637717 
L 234.036035 52.718309 
L 234.585428 59.154165 
L 234.676994 58.234757 
L 234.768559 58.234757 
L 235.134821 54.557125 
L 235.317952 55.476533 
L 235.592649 55.476533 
L 235.775779 56.395941 
L 235.867345 56.395941 
L 236.050476 52.718309 
L 236.233607 57.315349 
L 236.416738 55.476533 
L 236.508303 56.395941 
L 236.599869 55.476533 
L 236.874565 105.124567 
L 236.966131 105.124567 
L 237.057696 106.043975 
L 237.240827 103.285751 
L 237.423958 108.802199 
L 237.79022 106.043975 
L 237.881785 106.963383 
L 238.064916 105.124567 
L 238.248047 107.882791 
L 238.431178 106.043975 
L 238.522744 109.721607 
L 238.79744 106.963383 
L 238.889006 107.882791 
L 238.980571 106.043975 
L 239.255267 109.721607 
L 239.346833 107.882791 
L 239.529964 111.560423 
L 239.713095 110.641015 
L 239.80466 110.641015 
L 239.896226 111.560423 
L 239.987791 107.882791 
L 240.079357 109.721607 
L 240.262488 108.802199 
L 240.354053 109.721607 
L 240.537184 107.882791 
L 240.811881 109.721607 
L 240.903446 108.802199 
L 240.995011 109.721607 
L 241.178142 107.882791 
L 241.269708 110.641015 
L 241.452839 107.882791 
L 241.544404 109.721607 
L 241.63597 107.882791 
L 241.727535 108.802199 
L 241.819101 106.963383 
L 242.002232 109.721607 
L 242.093797 110.641015 
L 242.368494 107.882791 
L 242.460059 109.721607 
L 242.551625 107.882791 
L 243.009452 112.479831 
L 243.101017 109.721607 
L 243.192583 110.641015 
L 243.284148 107.882791 
L 243.467279 108.802199 
L 243.558845 108.802199 
L 243.65041 107.882791 
L 243.833541 108.802199 
L 243.925107 108.802199 
L 244.016672 109.721607 
L 244.199803 108.802199 
L 244.382934 108.802199 
L 244.566065 107.882791 
L 244.749196 107.882791 
L 245.115458 110.641015 
L 245.207023 108.802199 
L 245.390154 110.641015 
L 245.756416 107.882791 
L 245.847982 107.882791 
L 245.939547 108.802199 
L 246.031113 107.882791 
L 246.214244 110.641015 
L 246.397374 109.721607 
L 246.48894 109.721607 
L 246.672071 111.560423 
L 246.946767 107.882791 
L 247.038333 110.641015 
L 247.221464 108.802199 
L 247.313029 107.882791 
L 247.49616 109.721607 
L 247.587726 110.641015 
L 247.679291 106.963383 
L 247.862422 109.721607 
L 248.045553 108.802199 
L 248.228684 109.721607 
L 248.320249 106.963383 
L 248.50338 109.721607 
L 248.594946 107.882791 
L 248.778077 108.802199 
L 248.961208 107.882791 
L 249.052773 107.882791 
L 249.235904 110.641015 
L 249.32747 109.721607 
L 249.510601 109.721607 
L 249.785297 107.882791 
L 249.876862 109.721607 
L 250.151559 107.882791 
L 250.243124 107.882791 
L 250.33469 106.043975 
L 250.609386 108.802199 
L 250.700952 106.963383 
L 250.975648 109.721607 
L 251.067214 107.882791 
L 251.250345 108.802199 
L 251.34191 106.043975 
L 251.433476 110.641015 
L 251.525041 109.721607 
L 251.708172 108.802199 
L 251.891303 108.802199 
L 251.982868 107.882791 
L 252.074434 109.721607 
L 252.165999 106.963383 
L 252.440696 110.641015 
L 252.623827 110.641015 
L 252.806958 106.963383 
L 252.898523 109.721607 
L 253.264785 106.963383 
L 253.356351 106.963383 
L 253.539481 111.560423 
L 253.722612 107.882791 
L 253.814178 109.721607 
L 253.905743 107.882791 
L 253.997309 109.721607 
L 254.088874 106.963383 
L 254.18044 108.802199 
L 254.272005 107.882791 
L 254.363571 108.802199 
L 254.455136 106.043975 
L 254.638267 107.882791 
L 254.821398 108.802199 
L 255.004529 107.882791 
L 255.096095 109.721607 
L 255.370791 106.043975 
L 255.645487 108.802199 
L 255.737053 107.882791 
L 255.920184 110.641015 
L 256.011749 106.963383 
L 256.19488 109.721607 
L 256.286446 107.882791 
L 256.378011 109.721607 
L 256.469577 106.963383 
L 256.927404 110.641015 
L 257.110535 109.721607 
L 257.385231 111.560423 
L 257.476797 108.802199 
L 257.568362 109.721607 
L 257.659928 107.882791 
L 257.843059 109.721607 
L 258.02619 108.802199 
L 258.117755 108.802199 
L 258.209321 110.641015 
L 258.392452 107.882791 
L 258.484017 106.963383 
L 258.850279 109.721607 
L 258.941844 109.721607 
L 259.03341 110.641015 
L 259.491237 106.963383 
L 259.765934 108.802199 
L 259.857499 107.882791 
L 259.949065 109.721607 
L 260.132196 108.802199 
L 260.223761 108.802199 
L 260.498457 105.124567 
L 260.590023 106.043975 
L 260.681588 106.963383 
L 260.864719 106.043975 
L 260.956285 110.641015 
L 261.139416 106.043975 
L 261.414112 109.721607 
L 261.505678 109.721607 
L 261.780374 112.479831 
L 261.87194 111.560423 
L 261.963505 112.479831 
L 262.146636 109.721607 
L 262.238202 109.721607 
L 262.421332 108.802199 
L 262.512898 109.721607 
L 262.604463 107.882791 
L 262.696029 109.721607 
L 262.87916 108.802199 
L 262.970725 108.802199 
L 263.062291 107.882791 
L 263.153856 109.721607 
L 263.245422 107.882791 
L 263.336987 110.641015 
L 263.428553 107.882791 
L 263.520118 108.802199 
L 263.703249 111.560423 
L 263.88638 108.802199 
L 263.977946 109.721607 
L 264.161076 106.963383 
L 264.344207 108.802199 
L 264.435773 108.802199 
L 264.527338 110.641015 
L 264.710469 106.963383 
L 264.8936 108.802199 
L 264.985166 106.963383 
L 265.168297 109.721607 
L 265.259862 109.721607 
L 265.442993 107.882791 
L 265.626124 108.802199 
L 265.71769 106.963383 
L 265.809255 110.641015 
L 265.90082 109.721607 
L 265.992386 106.963383 
L 266.175517 108.802199 
L 266.267082 107.882791 
L 266.541779 109.721607 
L 266.633344 109.721607 
L 266.72491 108.802199 
L 266.816475 110.641015 
L 266.908041 108.802199 
L 267.182737 110.641015 
L 267.365868 109.721607 
L 267.457434 109.721607 
L 267.640564 107.882791 
L 268.006826 111.560423 
L 268.556219 106.043975 
L 268.73935 109.721607 
L 268.830916 109.721607 
L 268.922481 111.560423 
L 269.105612 109.721607 
L 269.197178 111.560423 
L 269.380309 110.641015 
L 269.471874 110.641015 
L 269.563439 108.802199 
L 269.74657 110.641015 
L 269.838136 108.802199 
L 269.929701 111.560423 
L 270.021267 109.721607 
L 270.295963 111.560423 
L 270.387529 110.641015 
L 270.479094 111.560423 
L 270.57066 109.721607 
L 270.662225 110.641015 
L 270.936922 108.802199 
L 271.028487 108.802199 
L 271.211618 109.721607 
L 271.303183 109.721607 
L 271.486314 108.802199 
L 271.57788 109.721607 
L 271.669445 108.802199 
L 271.761011 109.721607 
L 271.852576 108.802199 
L 272.035707 109.721607 
L 272.127273 113.399239 
L 272.401969 109.721607 
L 272.493535 112.479831 
L 272.859797 109.721607 
L 272.951362 113.399239 
L 273.226058 110.641015 
L 273.317624 111.560423 
L 273.500755 110.641015 
L 273.59232 111.560423 
L 273.775451 108.802199 
L 273.867017 111.560423 
L 273.958582 110.641015 
L 274.050148 113.399239 
L 274.233279 106.043975 
L 274.599541 112.479831 
L 274.691106 111.560423 
L 274.782671 113.399239 
L 274.965802 110.641015 
L 275.148933 110.641015 
L 275.240499 112.479831 
L 275.606761 109.721607 
L 275.789892 111.560423 
L 275.881457 111.560423 
L 275.973023 112.479831 
L 276.064588 110.641015 
L 276.247719 111.560423 
L 276.613981 107.882791 
L 276.705546 111.560423 
L 276.888677 109.721607 
L 276.980243 110.641015 
L 277.071808 108.802199 
L 277.163374 110.641015 
L 277.346505 109.721607 
L 277.529636 110.641015 
L 277.621201 110.641015 
L 277.712767 111.560423 
L 277.804332 110.641015 
L 278.079029 160.289049 
L 278.170594 159.369641 
L 278.353725 164.886089 
L 278.44529 163.966681 
L 278.536856 164.886089 
L 278.719987 163.966681 
L 278.903118 166.724905 
L 278.994683 164.886089 
L 279.177814 166.724905 
L 279.26938 165.805497 
L 279.452511 167.644313 
L 279.544076 166.724905 
L 279.727207 168.563721 
L 280.001904 166.724905 
L 280.093469 166.724905 
L 280.2766 168.563721 
L 280.551296 166.724905 
L 280.642862 168.563721 
L 280.734427 166.724905 
L 281.100689 170.402537 
L 281.28382 168.563721 
L 281.375386 170.402537 
L 281.466951 169.483129 
L 281.558517 166.724905 
L 281.650082 169.483129 
L 281.833213 168.563721 
L 282.016344 170.402537 
L 282.107909 171.321945 
L 282.199475 169.483129 
L 282.29104 171.321945 
L 282.382606 169.483129 
L 282.565737 170.402537 
L 282.840433 168.563721 
L 283.023564 171.321945 
L 283.11513 171.321945 
L 283.298261 170.402537 
L 283.389826 171.321945 
L 283.572957 169.483129 
L 283.756088 172.241353 
L 283.847653 170.402537 
L 284.030784 172.241353 
L 284.12235 169.483129 
L 284.305481 172.241353 
L 284.397046 171.321945 
L 284.488612 170.402537 
L 284.671743 172.241353 
L 284.763308 170.402537 
L 284.946439 173.160761 
L 285.221136 169.483129 
L 285.312701 170.402537 
L 285.404266 168.563721 
L 285.587397 170.402537 
L 285.770528 170.402537 
L 286.045225 172.241353 
L 286.228356 171.321945 
L 286.319921 172.241353 
L 286.686183 167.644313 
L 286.777749 168.563721 
L 286.96088 169.483129 
L 287.052445 167.644313 
L 287.144011 171.321945 
L 287.235576 169.483129 
L 287.327141 172.241353 
L 287.510272 171.321945 
L 287.601838 171.321945 
L 287.693403 169.483129 
L 287.784969 170.402537 
L 287.876534 169.483129 
L 288.242796 172.241353 
L 288.425927 170.402537 
L 288.609058 173.160761 
L 288.792189 171.321945 
L 288.883755 171.321945 
L 288.97532 170.402537 
L 289.158451 172.241353 
L 289.250016 172.241353 
L 289.341582 171.321945 
L 289.524713 173.160761 
L 289.799409 171.321945 
L 289.890975 171.321945 
L 290.074106 169.483129 
L 290.257237 171.321945 
L 290.348802 171.321945 
L 290.623499 173.160761 
L 290.806629 171.321945 
L 290.98976 173.160761 
L 291.172891 171.321945 
L 291.447588 174.080169 
L 291.630719 172.241353 
L 291.722284 172.241353 
L 291.996981 174.080169 
L 292.271677 170.402537 
L 292.363243 171.321945 
L 292.454808 171.321945 
L 292.637939 172.241353 
L 292.729504 172.241353 
L 292.82107 173.160761 
L 292.912635 172.241353 
L 293.187332 174.080169 
L 293.462028 172.241353 
L 293.645159 172.241353 
L 293.736725 174.999577 
L 293.919856 174.080169 
L 294.469248 174.080169 
L 294.560814 174.999577 
L 294.743945 173.160761 
L 294.83551 173.160761 
L 294.927076 174.080169 
L 295.110207 173.160761 
L 295.384903 174.999577 
L 295.476469 174.080169 
L 295.568034 174.999577 
L 295.6596 174.080169 
L 295.842731 174.999577 
L 296.025862 170.402537 
L 296.208992 174.080169 
L 296.300558 174.080169 
L 296.483689 173.160761 
L 296.66682 173.160761 
L 296.758385 172.241353 
L 297.033082 174.080169 
L 297.124647 174.080169 
L 297.307778 174.999577 
L 297.490909 173.160761 
L 297.582475 173.160761 
L 297.765606 174.080169 
L 297.857171 174.080169 
L 297.948736 174.999577 
L 298.040302 173.160761 
L 298.131867 174.080169 
L 298.406564 172.241353 
L 298.68126 174.080169 
L 298.864391 173.160761 
L 299.139088 173.160761 
L 299.230653 174.080169 
L 299.322219 173.160761 
L 299.413784 174.999577 
L 299.596915 172.241353 
L 299.68848 173.160761 
L 299.871611 174.999577 
L 300.054742 174.080169 
L 300.237873 174.999577 
L 300.329439 174.999577 
L 300.421004 174.080169 
L 300.604135 175.918985 
L 300.695701 174.080169 
L 300.787266 174.999577 
L 301.061963 172.241353 
L 301.245094 174.080169 
L 301.336659 173.160761 
L 301.611355 175.918985 
L 301.702921 172.241353 
L 301.794486 174.999577 
L 301.886052 174.080169 
L 301.977617 174.999577 
L 302.069183 173.160761 
L 302.435445 175.918985 
L 302.618576 174.999577 
L 302.710141 175.918985 
L 302.984838 174.080169 
L 303.167968 174.080169 
L 303.259534 174.999577 
L 303.351099 174.080169 
L 303.53423 174.999577 
L 303.625796 174.999577 
L 303.900492 173.160761 
L 303.992058 174.999577 
L 304.175189 173.160761 
L 304.449885 175.918985 
L 304.633016 174.080169 
L 304.724582 173.160761 
L 304.907713 174.080169 
L 304.999278 174.080169 
L 305.090843 174.999577 
L 305.182409 173.160761 
L 305.273974 174.999577 
L 305.457105 173.160761 
L 305.640236 174.999577 
L 305.823367 174.080169 
L 306.006498 175.918985 
L 306.098064 175.918985 
L 306.189629 177.757801 
L 306.464326 174.999577 
L 306.739022 177.757801 
L 306.922153 175.918985 
L 307.013718 175.918985 
L 307.196849 174.080169 
L 307.288415 175.918985 
L 307.563111 174.080169 
L 307.654677 174.080169 
L 307.746242 172.241353 
L 307.929373 174.080169 
L 308.295635 174.080169 
L 308.387201 173.160761 
L 308.570331 174.999577 
L 308.661897 174.999577 
L 308.753462 175.918985 
L 308.845028 174.999577 
L 309.119724 176.838393 
L 309.302855 174.999577 
L 309.760683 174.999577 
L 309.852248 175.918985 
L 309.943814 174.999577 
L 310.126945 178.677209 
L 310.21851 176.838393 
L 310.310075 178.677209 
L 310.493206 175.918985 
L 310.676337 175.918985 
L 310.767903 176.838393 
L 310.951034 174.999577 
L 311.134165 176.838393 
L 311.408861 170.402537 
L 311.591992 172.241353 
L 311.683558 170.402537 
L 311.866689 172.241353 
L 311.958254 173.160761 
L 312.049819 175.918985 
L 312.141385 174.080169 
L 312.23295 174.999577 
L 312.324516 173.160761 
L 312.599212 174.999577 
L 312.690778 174.080169 
L 312.782343 176.838393 
L 312.965474 174.080169 
L 313.148605 173.160761 
L 313.240171 173.160761 
L 313.423302 174.999577 
L 313.514867 173.160761 
L 313.881129 177.757801 
L 313.972694 176.838393 
L 314.06426 175.918985 
L 314.155825 176.838393 
L 314.338956 174.080169 
L 314.522087 175.918985 
L 314.613653 175.918985 
L 314.705218 176.838393 
L 314.796784 175.918985 
L 315.07148 177.757801 
L 315.163046 176.838393 
L 315.346177 177.757801 
L 315.437742 177.757801 
L 315.620873 175.918985 
L 315.804004 177.757801 
L 315.895569 175.918985 
L 316.170266 177.757801 
L 316.261831 177.757801 
L 316.444962 173.160761 
L 316.536528 173.160761 
L 316.628093 175.918985 
L 316.90279 173.160761 
L 316.994355 174.999577 
L 317.177486 174.080169 
L 317.452182 175.918985 
L 317.543748 175.918985 
L 317.726879 176.838393 
L 317.91001 174.080169 
L 318.093141 174.999577 
L 318.184706 174.999577 
L 318.276272 175.918985 
L 318.459403 174.999577 
L 318.550968 175.918985 
L 318.642534 173.160761 
L 318.734099 176.838393 
L 319.008796 173.160761 
L 319.283492 83.978182 
L 319.649754 77.542326 
L 319.741319 77.542326 
L 319.832885 74.784101 
L 319.92445 76.622918 
L 320.382278 72.945285 
L 320.473843 73.864693 
L 320.656974 70.187061 
L 320.74854 70.187061 
L 321.114801 67.428837 
L 321.297932 70.187061 
L 321.389498 69.267653 
L 321.481063 70.187061 
L 321.664194 69.267653 
L 321.75576 70.187061 
L 321.847325 67.428837 
L 321.938891 69.267653 
L 322.122022 66.509429 
L 322.305153 64.670613 
L 322.396718 65.590021 
L 322.579849 64.670613 
L 322.854545 64.670613 
L 322.946111 66.509429 
L 323.037676 63.751205 
L 323.129242 64.670613 
L 323.220807 67.428837 
L 323.312373 65.590021 
L 323.403938 66.509429 
L 323.495504 65.590021 
L 323.678635 67.428837 
L 323.7702 68.348245 
L 324.136462 65.590021 
L 324.228028 67.428837 
L 324.411159 64.670613 
L 324.502724 60.073573 
L 324.685855 66.509429 
L 324.960551 63.751205 
L 325.235248 65.590021 
L 325.418379 60.992981 
L 325.509944 62.831797 
L 325.60151 60.992981 
L 325.693075 61.912389 
L 325.876206 64.670613 
L 325.967772 63.751205 
L 326.242468 65.590021 
L 326.334033 63.751205 
L 326.425599 65.590021 
L 326.517164 62.831797 
L 326.60873 64.670613 
L 326.700295 62.831797 
L 326.791861 64.670613 
L 327.066557 60.992981 
L 327.158123 62.831797 
L 327.249688 60.073573 
L 327.432819 62.831797 
L 327.524385 62.831797 
L 327.61595 60.073573 
L 327.799081 61.912389 
L 327.982212 60.992981 
L 328.256908 63.751205 
L 328.531605 60.992981 
L 328.62317 62.831797 
L 328.897867 60.992981 
L 328.989432 62.831797 
L 329.264129 60.073573 
L 329.355694 60.992981 
L 329.44726 63.751205 
L 329.630391 59.154165 
L 329.721956 58.234757 
L 329.905087 60.073573 
L 329.996652 60.992981 
L 330.179783 64.670613 
L 330.546045 60.073573 
L 330.637611 60.992981 
L 330.729176 61.912389 
L 330.820742 60.073573 
L 330.912307 60.992981 
L 331.187004 57.315349 
L 331.553266 62.831797 
L 331.644831 62.831797 
L 331.736396 63.751205 
L 331.919527 59.154165 
L 332.102658 61.912389 
L 332.285789 63.751205 
L 332.377355 64.670613 
L 332.560486 63.751205 
L 332.652051 60.073573 
L 332.835182 61.912389 
L 333.018313 61.912389 
L 333.109879 64.670613 
L 333.29301 62.831797 
L 333.384575 61.912389 
L 333.47614 63.751205 
L 333.842402 58.234757 
L 333.933968 58.234757 
L 334.025533 60.073573 
L 334.117099 59.154165 
L 334.208664 60.992981 
L 334.30023 59.154165 
L 334.391795 60.992981 
L 334.483361 59.154165 
L 334.666492 60.992981 
L 334.758057 60.992981 
L 334.941188 64.670613 
L 335.215884 60.992981 
L 335.30745 59.154165 
L 335.582146 62.831797 
L 335.765277 62.831797 
L 335.856843 60.992981 
L 336.039974 62.831797 
L 336.131539 60.992981 
L 336.223105 61.912389 
L 336.31467 60.992981 
L 336.497801 62.831797 
L 336.589367 62.831797 
L 336.955628 60.073573 
L 337.32189 63.751205 
L 337.413456 61.912389 
L 337.505021 62.831797 
L 337.596587 65.590021 
L 337.688152 64.670613 
L 337.871283 60.073573 
L 338.054414 62.831797 
L 338.237545 59.154165 
L 338.420676 61.912389 
L 338.512242 61.912389 
L 338.603807 62.831797 
L 338.695372 60.073573 
L 338.786938 61.912389 
L 338.970069 60.073573 
L 339.1532 60.992981 
L 339.244765 60.992981 
L 339.427896 62.831797 
L 339.794158 60.073573 
L 339.885724 60.992981 
L 340.068855 65.590021 
L 340.16042 64.670613 
L 340.251986 60.992981 
L 340.709813 64.670613 
L 340.892944 61.912389 
L 340.984509 60.992981 
L 341.076075 58.234757 
L 341.259206 59.154165 
L 341.442337 58.234757 
L 341.533902 53.637717 
L 341.625468 57.315349 
L 341.900164 55.476533 
L 341.99173 55.476533 
L 342.174861 54.557125 
L 342.266426 54.557125 
L 342.449557 52.718309 
L 342.632688 50.879493 
L 342.724253 51.798901 
L 342.815819 50.879493 
L 342.907384 51.798901 
L 342.99895 50.879493 
L 343.456777 54.557125 
L 343.639908 52.718309 
L 343.731474 53.637717 
L 343.914605 51.798901 
L 344.00617 52.718309 
L 344.189301 56.395941 
L 344.280866 57.315349 
L 344.647128 49.960085 
L 345.196521 55.476533 
L 345.379652 52.718309 
L 345.471218 52.718309 
L 345.562783 50.879493 
L 345.929045 53.637717 
L 346.02061 53.637717 
L 346.112176 55.476533 
L 346.203741 51.798901 
L 346.295307 53.637717 
L 346.386872 51.798901 
L 346.570003 54.557125 
L 346.661569 54.557125 
L 346.753134 55.476533 
L 346.936265 52.718309 
L 347.119396 54.557125 
L 347.210962 53.637717 
L 347.302527 55.476533 
L 347.485658 52.718309 
L 347.668789 57.315349 
L 347.85192 55.476533 
L 348.035051 55.476533 
L 348.126616 54.557125 
L 348.218182 56.395941 
L 348.309747 55.476533 
L 348.676009 58.234757 
L 348.85914 56.395941 
L 349.042271 57.315349 
L 349.133837 57.315349 
L 349.316968 56.395941 
L 349.408533 56.395941 
L 349.591664 57.315349 
L 349.683229 57.315349 
L 349.774795 54.557125 
L 349.86636 57.315349 
L 349.957926 55.476533 
L 350.232622 57.315349 
L 350.415753 56.395941 
L 350.507319 59.154165 
L 350.69045 58.234757 
L 350.782015 58.234757 
L 350.965146 60.073573 
L 351.239842 55.476533 
L 351.422973 57.315349 
L 351.514539 54.557125 
L 351.880801 59.154165 
L 352.155497 55.476533 
L 352.338628 59.154165 
L 352.430194 57.315349 
L 352.613325 60.073573 
L 352.796456 56.395941 
L 352.979586 59.154165 
L 353.071152 58.234757 
L 353.345848 60.073573 
L 353.437414 60.073573 
L 353.528979 59.154165 
L 353.620545 56.395941 
L 353.71211 58.234757 
L 353.803676 56.395941 
L 353.986807 59.154165 
L 354.078372 57.315349 
L 354.169938 59.154165 
L 354.261503 58.234757 
L 354.353069 59.154165 
L 354.444634 58.234757 
L 354.5362 60.073573 
L 354.627765 59.154165 
L 354.71933 60.073573 
L 354.902461 58.234757 
L 354.994027 59.154165 
L 355.085592 56.395941 
L 355.268723 60.073573 
L 355.451854 59.154165 
L 355.54342 61.912389 
L 355.634985 60.073573 
L 355.726551 61.912389 
L 355.818116 58.234757 
L 356.092813 62.831797 
L 356.184378 62.831797 
L 356.367509 59.154165 
L 356.55064 60.073573 
L 356.733771 58.234757 
L 356.916902 56.395941 
L 357.100033 58.234757 
L 357.191598 59.154165 
L 357.283164 58.234757 
L 357.374729 62.831797 
L 357.466295 60.073573 
L 357.55786 62.831797 
L 357.740991 60.992981 
L 357.832557 61.912389 
L 357.924122 59.154165 
L 358.015688 60.073573 
L 358.198819 58.234757 
L 358.381949 59.154165 
L 358.473515 59.154165 
L 358.56508 57.315349 
L 358.748211 59.154165 
L 358.839777 58.234757 
L 358.931342 61.912389 
L 359.114473 57.315349 
L 359.206039 60.073573 
L 359.38917 59.154165 
L 359.480735 60.073573 
L 359.663866 57.315349 
L 359.755432 60.073573 
L 359.846997 57.315349 
L 359.938563 59.154165 
L 360.030128 56.395941 
L 360.213259 57.315349 
L 360.487955 116.157463 
L 360.671086 129.029175 
L 360.854217 206.25945 
L 361.037348 217.292347 
L 361.40361 228.325243 
L 361.495176 227.405835 
L 361.678307 229.244651 
L 361.769872 228.325243 
L 362.044568 230.164059 
L 362.227699 228.325243 
L 362.319265 230.164059 
L 362.41083 229.244651 
L 362.593961 230.164059 
L 362.685527 230.164059 
L 362.777092 231.083467 
L 362.868658 233.841691 
L 362.960223 232.922283 
L 363.051789 234.761099 
L 363.23492 231.083467 
L 363.509616 234.761099 
L 363.601181 232.922283 
L 363.692747 233.841691 
L 363.875878 232.922283 
L 364.059009 232.922283 
L 364.150574 234.761099 
L 364.24214 232.922283 
L 364.425271 233.841691 
L 364.516836 233.841691 
L 364.608402 234.761099 
L 364.791533 233.841691 
L 364.883098 233.841691 
L 364.974664 234.761099 
L 365.066229 232.002875 
L 365.340926 235.680507 
L 365.707187 235.680507 
L 365.798753 236.599915 
L 365.981884 234.761099 
L 366.073449 235.680507 
L 366.25658 233.841691 
L 366.439711 234.761099 
L 366.531277 234.761099 
L 366.714408 235.680507 
L 366.897539 234.761099 
L 366.989104 234.761099 
L 367.172235 235.680507 
L 367.2638 233.841691 
L 367.446931 235.680507 
L 367.538497 234.761099 
L 367.630062 235.680507 
L 367.721628 233.841691 
L 367.904759 234.761099 
L 367.996324 233.841691 
L 368.271021 235.680507 
L 368.362586 234.761099 
L 368.545717 238.438732 
L 368.820414 235.680507 
L 369.186675 238.438732 
L 369.369806 236.599915 
L 369.552937 237.519323 
L 369.644503 237.519323 
L 369.827634 238.438732 
L 370.010765 235.680507 
L 370.285461 239.35814 
L 370.468592 240.277548 
L 370.651723 240.277548 
L 370.743288 241.196956 
L 371.017985 239.35814 
L 371.201116 240.277548 
L 371.384247 239.35814 
L 371.475812 239.35814 
L 371.567378 240.277548 
L 371.93364 237.519323 
L 372.391467 241.196956 
L 372.483032 240.277548 
L 372.574598 241.196956 
L 372.757729 239.35814 
L 372.849294 239.35814 
L 373.032425 242.116364 
L 373.398687 238.438732 
L 373.581818 241.196956 
L 373.581818 241.196956 
" style="fill:none;stroke:#0000ff;stroke-linecap:square;stroke-width:1.5;"/>
   </g>
   <g id="patch_3">
    <path d="M 54 252 
L 54 34.56 
" style="fill:none;stroke:#000000;stroke-linecap:square;stroke-linejoin:miter;stroke-width:0.8;"/>
   </g>
   <g id="patch_4">
    <path d="M 388.8 252 
L 388.8 34.56 
" style="fill:none;stroke:#000000;stroke-linecap:square;stroke-linejoin:miter;stroke-width:0.8;"/>
   </g>
   <g id="patch_5">
    <path d="M 54 252 
L 388.8 252 
" style="fill:none;stroke:#000000;stroke-linecap:square;stroke-linejoin:miter;stroke-width:0.8;"/>
   </g>
   <g id="patch_6">
    <path d="M 54 34.56 
L 388.8 34.56 
" style="fill:none;stroke:#000000;stroke-linecap:square;stroke-linejoin:miter;stroke-width:0.8;"/>
   </g>
   <g id="text_15">
    <!-- TREAT 2899T Detector Output -->
    <defs>
     <path d="M -0.296875 72.90625 
L 61.375 72.90625 
L 61.375 64.59375 
L 35.5 64.59375 
L 35.5 0 
L 25.59375 0 
L 25.59375 64.59375 
L -0.296875 64.59375 
z
" id="DejaVuSans-54"/>
     <path d="M 44.390625 34.1875 
Q 47.5625 33.109375 50.5625 29.59375 
Q 53.5625 26.078125 56.59375 19.921875 
L 66.609375 0 
L 56 0 
L 46.6875 18.703125 
Q 43.0625 26.03125 39.671875 28.421875 
Q 36.28125 30.8125 30.421875 30.8125 
L 19.671875 30.8125 
L 19.671875 0 
L 9.8125 0 
L 9.8125 72.90625 
L 32.078125 72.90625 
Q 44.578125 72.90625 50.734375 67.671875 
Q 56.890625 62.453125 56.890625 51.90625 
Q 56.890625 45.015625 53.6875 40.46875 
Q 50.484375 35.9375 44.390625 34.1875 
M 19.671875 64.796875 
L 19.671875 38.921875 
L 32.078125 38.921875 
Q 39.203125 38.921875 42.84375 42.21875 
Q 46.484375 45.515625 46.484375 51.90625 
Q 46.484375 58.296875 42.84375 61.546875 
Q 39.203125 64.796875 32.078125 64.796875 
z
" id="DejaVuSans-52"/>
     <path d="M 9.8125 72.90625 
L 55.90625 72.90625 
L 55.90625 64.59375 
L 19.671875 64.59375 
L 19.671875 43.015625 
L 54.390625 43.015625 
L 54.390625 34.71875 
L 19.671875 34.71875 
L 19.671875 8.296875 
L 56.78125 8.296875 
L 56.78125 0 
L 9.8125 0 
z
" id="DejaVuSans-45"/>
     <path d="M 34.1875 63.1875 
L 20.796875 26.90625 
L 47.609375 26.90625 
z
M 28.609375 72.90625 
L 39.796875 72.90625 
L 67.578125 0 
L 57.328125 0 
L 50.6875 18.703125 
L 17.828125 18.703125 
L 11.1875 0 
L 0.78125 0 
z
" id="DejaVuSans-41"/>
     <path d="M 31.78125 34.625 
Q 24.75 34.625 20.71875 30.859375 
Q 16.703125 27.09375 16.703125 20.515625 
Q 16.703125 13.921875 20.71875 10.15625 
Q 24.75 6.390625 31.78125 6.390625 
Q 38.8125 6.390625 42.859375 10.171875 
Q 46.921875 13.96875 46.921875 20.515625 
Q 46.921875 27.09375 42.890625 30.859375 
Q 38.875 34.625 31.78125 34.625 
M 21.921875 38.8125 
Q 15.578125 40.375 12.03125 44.71875 
Q 8.5 49.078125 8.5 55.328125 
Q 8.5 64.0625 14.71875 69.140625 
Q 20.953125 74.21875 31.78125 74.21875 
Q 42.671875 74.21875 48.875 69.140625 
Q 55.078125 64.0625 55.078125 55.328125 
Q 55.078125 49.078125 51.53125 44.71875 
Q 48 40.375 41.703125 38.8125 
Q 48.828125 37.15625 52.796875 32.3125 
Q 56.78125 27.484375 56.78125 20.515625 
Q 56.78125 9.90625 50.3125 4.234375 
Q 43.84375 -1.421875 31.78125 -1.421875 
Q 19.734375 -1.421875 13.25 4.234375 
Q 6.78125 9.90625 6.78125 20.515625 
Q 6.78125 27.484375 10.78125 32.3125 
Q 14.796875 37.15625 21.921875 38.8125 
M 18.3125 54.390625 
Q 18.3125 48.734375 21.84375 45.5625 
Q 25.390625 42.390625 31.78125 42.390625 
Q 38.140625 42.390625 41.71875 45.5625 
Q 45.3125 48.734375 45.3125 54.390625 
Q 45.3125 60.0625 41.71875 63.234375 
Q 38.140625 66.40625 31.78125 66.40625 
Q 25.390625 66.40625 21.84375 63.234375 
Q 18.3125 60.0625 18.3125 54.390625 
" id="DejaVuSans-38"/>
     <path d="M 10.984375 1.515625 
L 10.984375 10.5 
Q 14.703125 8.734375 18.5 7.8125 
Q 22.3125 6.890625 25.984375 6.890625 
Q 35.75 6.890625 40.890625 13.453125 
Q 46.046875 20.015625 46.78125 33.40625 
Q 43.953125 29.203125 39.59375 26.953125 
Q 35.25 24.703125 29.984375 24.703125 
Q 19.046875 24.703125 12.671875 31.3125 
Q 6.296875 37.9375 6.296875 49.421875 
Q 6.296875 60.640625 12.9375 67.421875 
Q 19.578125 74.21875 30.609375 74.21875 
Q 43.265625 74.21875 49.921875 64.515625 
Q 56.59375 54.828125 56.59375 36.375 
Q 56.59375 19.140625 48.40625 8.859375 
Q 40.234375 -1.421875 26.421875 -1.421875 
Q 22.703125 -1.421875 18.890625 -0.6875 
Q 15.09375 0.046875 10.984375 1.515625 
M 30.609375 32.421875 
Q 37.25 32.421875 41.125 36.953125 
Q 45.015625 41.5 45.015625 49.421875 
Q 45.015625 57.28125 41.125 61.84375 
Q 37.25 66.40625 30.609375 66.40625 
Q 23.96875 66.40625 20.09375 61.84375 
Q 16.21875 57.28125 16.21875 49.421875 
Q 16.21875 41.5 20.09375 36.953125 
Q 23.96875 32.421875 30.609375 32.421875 
" id="DejaVuSans-39"/>
    </defs>
    <g transform="translate(130.370625 28.56)scale(0.12 -0.12)">
     <use xlink:href="#DejaVuSans-54"/>
     <use x="61.083984" xlink:href="#DejaVuSans-52"/>
     <use x="130.566406" xlink:href="#DejaVuSans-45"/>
     <use x="193.75" xlink:href="#DejaVuSans-41"/>
     <use x="262.048828" xlink:href="#DejaVuSans-54"/>
     <use x="323.132812" xlink:href="#DejaVuSans-20"/>
     <use x="354.919922" xlink:href="#DejaVuSans-32"/>
     <use x="418.542969" xlink:href="#DejaVuSans-38"/>
     <use x="482.166016" xlink:href="#DejaVuSans-39"/>
     <use x="545.789062" xlink:href="#DejaVuSans-39"/>
     <use x="609.412109" xlink:href="#DejaVuSans-54"/>
     <use x="670.496094" xlink:href="#DejaVuSans-20"/>
     <use x="702.283203" xlink:href="#DejaVuSans-44"/>
     <use x="779.285156" xlink:href="#DejaVuSans-65"/>
     <use x="840.808594" xlink:href="#DejaVuSans-74"/>
     <use x="880.017578" xlink:href="#DejaVuSans-65"/>
     <use x="941.541016" xlink:href="#DejaVuSans-63"/>
     <use x="996.521484" xlink:href="#DejaVuSans-74"/>
     <use x="1035.730469" xlink:href="#DejaVuSans-6f"/>
     <use x="1096.912109" xlink:href="#DejaVuSans-72"/>
     <use x="1138.025391" xlink:href="#DejaVuSans-20"/>
     <use x="1169.8125" xlink:href="#DejaVuSans-4f"/>
     <use x="1248.523438" xlink:href="#DejaVuSans-75"/>
     <use x="1311.902344" xlink:href="#DejaVuSans-74"/>
     <use x="1351.111328" xlink:href="#DejaVuSans-70"/>
     <use x="1414.587891" xlink:href="#DejaVuSans-75"/>
     <use x="1477.966797" xlink:href="#DejaVuSans-74"/>
    </g>
   </g>
  </g>
 </g>
 <defs>
  <clipPath id="pda0a163d1c">
   <rect height="217.44" width="334.8" x="54" y="34.56"/>
  </clipPath>
 </defs>
</svg>
