<?xml version="1.0" encoding="utf-8" standalone="no"?>
<!DOCTYPE svg PUBLIC "-//W3C//DTD SVG 1.1//EN"
  "http://www.w3.org/Graphics/SVG/1.1/DTD/svg11.dtd">
<!-- Created with matplotlib (http://matplotlib.org/) -->
<svg height="288pt" version="1.1" viewBox="0 0 432 288" width="432pt" xmlns="http://www.w3.org/2000/svg" xmlns:xlink="http://www.w3.org/1999/xlink">
 <defs>
  <style type="text/css">
*{stroke-linecap:butt;stroke-linejoin:round;}
  </style>
 </defs>
 <g id="figure_1">
  <g id="patch_1">
   <path d="M 0 288 
L 432 288 
L 432 0 
L 0 0 
z
" style="fill:#ffffff;"/>
  </g>
  <g id="axes_1">
   <g id="patch_2">
    <path d="M 54 252 
L 388.8 252 
L 388.8 34.56 
L 54 34.56 
z
" style="fill:#ffffff;"/>
   </g>
   <g id="matplotlib.axis_1">
    <g id="xtick_1">
     <g id="line2d_1">
      <path clip-path="url(#pde535656d5)" d="M 69.218182 252 
L 69.218182 34.56 
" style="fill:none;stroke:#b0b0b0;stroke-linecap:square;stroke-width:0.8;"/>
     </g>
     <g id="line2d_2">
      <defs>
       <path d="M 0 0 
L 0 3.5 
" id="m1be8e282e6" style="stroke:#000000;stroke-width:0.8;"/>
      </defs>
      <g>
       <use style="stroke:#000000;stroke-width:0.8;" x="69.218182" xlink:href="#m1be8e282e6" y="252"/>
      </g>
     </g>
     <g id="text_1">
      <!-- 0 -->
      <defs>
       <path d="M 31.78125 66.40625 
Q 24.171875 66.40625 20.328125 58.90625 
Q 16.5 51.421875 16.5 36.375 
Q 16.5 21.390625 20.328125 13.890625 
Q 24.171875 6.390625 31.78125 6.390625 
Q 39.453125 6.390625 43.28125 13.890625 
Q 47.125 21.390625 47.125 36.375 
Q 47.125 51.421875 43.28125 58.90625 
Q 39.453125 66.40625 31.78125 66.40625 
M 31.78125 74.21875 
Q 44.046875 74.21875 50.515625 64.515625 
Q 56.984375 54.828125 56.984375 36.375 
Q 56.984375 17.96875 50.515625 8.265625 
Q 44.046875 -1.421875 31.78125 -1.421875 
Q 19.53125 -1.421875 13.0625 8.265625 
Q 6.59375 17.96875 6.59375 36.375 
Q 6.59375 54.828125 13.0625 64.515625 
Q 19.53125 74.21875 31.78125 74.21875 
" id="DejaVuSans-30"/>
      </defs>
      <g transform="translate(66.036932 266.598437)scale(0.1 -0.1)">
       <use xlink:href="#DejaVuSans-30"/>
      </g>
     </g>
    </g>
    <g id="xtick_2">
     <g id="line2d_3">
      <path clip-path="url(#pde535656d5)" d="M 115.000919 252 
L 115.000919 34.56 
" style="fill:none;stroke:#b0b0b0;stroke-linecap:square;stroke-width:0.8;"/>
     </g>
     <g id="line2d_4">
      <g>
       <use style="stroke:#000000;stroke-width:0.8;" x="115.000919" xlink:href="#m1be8e282e6" y="252"/>
      </g>
     </g>
     <g id="text_2">
      <!-- 500 -->
      <defs>
       <path d="M 10.796875 72.90625 
L 49.515625 72.90625 
L 49.515625 64.59375 
L 19.828125 64.59375 
L 19.828125 46.734375 
Q 21.96875 47.46875 24.109375 47.828125 
Q 26.265625 48.1875 28.421875 48.1875 
Q 40.625 48.1875 47.75 41.5 
Q 54.890625 34.8125 54.890625 23.390625 
Q 54.890625 11.625 47.5625 5.09375 
Q 40.234375 -1.421875 26.90625 -1.421875 
Q 22.3125 -1.421875 17.546875 -0.640625 
Q 12.796875 0.140625 7.71875 1.703125 
L 7.71875 11.625 
Q 12.109375 9.234375 16.796875 8.0625 
Q 21.484375 6.890625 26.703125 6.890625 
Q 35.15625 6.890625 40.078125 11.328125 
Q 45.015625 15.765625 45.015625 23.390625 
Q 45.015625 31 40.078125 35.4375 
Q 35.15625 39.890625 26.703125 39.890625 
Q 22.75 39.890625 18.8125 39.015625 
Q 14.890625 38.140625 10.796875 36.28125 
z
" id="DejaVuSans-35"/>
      </defs>
      <g transform="translate(105.457169 266.598437)scale(0.1 -0.1)">
       <use xlink:href="#DejaVuSans-35"/>
       <use x="63.623047" xlink:href="#DejaVuSans-30"/>
       <use x="127.246094" xlink:href="#DejaVuSans-30"/>
      </g>
     </g>
    </g>
    <g id="xtick_3">
     <g id="line2d_5">
      <path clip-path="url(#pde535656d5)" d="M 160.783656 252 
L 160.783656 34.56 
" style="fill:none;stroke:#b0b0b0;stroke-linecap:square;stroke-width:0.8;"/>
     </g>
     <g id="line2d_6">
      <g>
       <use style="stroke:#000000;stroke-width:0.8;" x="160.783656" xlink:href="#m1be8e282e6" y="252"/>
      </g>
     </g>
     <g id="text_3">
      <!-- 1000 -->
      <defs>
       <path d="M 12.40625 8.296875 
L 28.515625 8.296875 
L 28.515625 63.921875 
L 10.984375 60.40625 
L 10.984375 69.390625 
L 28.421875 72.90625 
L 38.28125 72.90625 
L 38.28125 8.296875 
L 54.390625 8.296875 
L 54.390625 0 
L 12.40625 0 
z
" id="DejaVuSans-31"/>
      </defs>
      <g transform="translate(148.058656 266.598437)scale(0.1 -0.1)">
       <use xlink:href="#DejaVuSans-31"/>
       <use x="63.623047" xlink:href="#DejaVuSans-30"/>
       <use x="127.246094" xlink:href="#DejaVuSans-30"/>
       <use x="190.869141" xlink:href="#DejaVuSans-30"/>
      </g>
     </g>
    </g>
    <g id="xtick_4">
     <g id="line2d_7">
      <path clip-path="url(#pde535656d5)" d="M 206.566393 252 
L 206.566393 34.56 
" style="fill:none;stroke:#b0b0b0;stroke-linecap:square;stroke-width:0.8;"/>
     </g>
     <g id="line2d_8">
      <g>
       <use style="stroke:#000000;stroke-width:0.8;" x="206.566393" xlink:href="#m1be8e282e6" y="252"/>
      </g>
     </g>
     <g id="text_4">
      <!-- 1500 -->
      <g transform="translate(193.841393 266.598437)scale(0.1 -0.1)">
       <use xlink:href="#DejaVuSans-31"/>
       <use x="63.623047" xlink:href="#DejaVuSans-35"/>
       <use x="127.246094" xlink:href="#DejaVuSans-30"/>
       <use x="190.869141" xlink:href="#DejaVuSans-30"/>
      </g>
     </g>
    </g>
    <g id="xtick_5">
     <g id="line2d_9">
      <path clip-path="url(#pde535656d5)" d="M 252.34913 252 
L 252.34913 34.56 
" style="fill:none;stroke:#b0b0b0;stroke-linecap:square;stroke-width:0.8;"/>
     </g>
     <g id="line2d_10">
      <g>
       <use style="stroke:#000000;stroke-width:0.8;" x="252.34913" xlink:href="#m1be8e282e6" y="252"/>
      </g>
     </g>
     <g id="text_5">
      <!-- 2000 -->
      <defs>
       <path d="M 19.1875 8.296875 
L 53.609375 8.296875 
L 53.609375 0 
L 7.328125 0 
L 7.328125 8.296875 
Q 12.9375 14.109375 22.625 23.890625 
Q 32.328125 33.6875 34.8125 36.53125 
Q 39.546875 41.84375 41.421875 45.53125 
Q 43.3125 49.21875 43.3125 52.78125 
Q 43.3125 58.59375 39.234375 62.25 
Q 35.15625 65.921875 28.609375 65.921875 
Q 23.96875 65.921875 18.8125 64.3125 
Q 13.671875 62.703125 7.8125 59.421875 
L 7.8125 69.390625 
Q 13.765625 71.78125 18.9375 73 
Q 24.125 74.21875 28.421875 74.21875 
Q 39.75 74.21875 46.484375 68.546875 
Q 53.21875 62.890625 53.21875 53.421875 
Q 53.21875 48.921875 51.53125 44.890625 
Q 49.859375 40.875 45.40625 35.40625 
Q 44.1875 33.984375 37.640625 27.21875 
Q 31.109375 20.453125 19.1875 8.296875 
" id="DejaVuSans-32"/>
      </defs>
      <g transform="translate(239.62413 266.598437)scale(0.1 -0.1)">
       <use xlink:href="#DejaVuSans-32"/>
       <use x="63.623047" xlink:href="#DejaVuSans-30"/>
       <use x="127.246094" xlink:href="#DejaVuSans-30"/>
       <use x="190.869141" xlink:href="#DejaVuSans-30"/>
      </g>
     </g>
    </g>
    <g id="xtick_6">
     <g id="line2d_11">
      <path clip-path="url(#pde535656d5)" d="M 298.131867 252 
L 298.131867 34.56 
" style="fill:none;stroke:#b0b0b0;stroke-linecap:square;stroke-width:0.8;"/>
     </g>
     <g id="line2d_12">
      <g>
       <use style="stroke:#000000;stroke-width:0.8;" x="298.131867" xlink:href="#m1be8e282e6" y="252"/>
      </g>
     </g>
     <g id="text_6">
      <!-- 2500 -->
      <g transform="translate(285.406867 266.598437)scale(0.1 -0.1)">
       <use xlink:href="#DejaVuSans-32"/>
       <use x="63.623047" xlink:href="#DejaVuSans-35"/>
       <use x="127.246094" xlink:href="#DejaVuSans-30"/>
       <use x="190.869141" xlink:href="#DejaVuSans-30"/>
      </g>
     </g>
    </g>
    <g id="xtick_7">
     <g id="line2d_13">
      <path clip-path="url(#pde535656d5)" d="M 343.914605 252 
L 343.914605 34.56 
" style="fill:none;stroke:#b0b0b0;stroke-linecap:square;stroke-width:0.8;"/>
     </g>
     <g id="line2d_14">
      <g>
       <use style="stroke:#000000;stroke-width:0.8;" x="343.914605" xlink:href="#m1be8e282e6" y="252"/>
      </g>
     </g>
     <g id="text_7">
      <!-- 3000 -->
      <defs>
       <path d="M 40.578125 39.3125 
Q 47.65625 37.796875 51.625 33 
Q 55.609375 28.21875 55.609375 21.1875 
Q 55.609375 10.40625 48.1875 4.484375 
Q 40.765625 -1.421875 27.09375 -1.421875 
Q 22.515625 -1.421875 17.65625 -0.515625 
Q 12.796875 0.390625 7.625 2.203125 
L 7.625 11.71875 
Q 11.71875 9.328125 16.59375 8.109375 
Q 21.484375 6.890625 26.8125 6.890625 
Q 36.078125 6.890625 40.9375 10.546875 
Q 45.796875 14.203125 45.796875 21.1875 
Q 45.796875 27.640625 41.28125 31.265625 
Q 36.765625 34.90625 28.71875 34.90625 
L 20.21875 34.90625 
L 20.21875 43.015625 
L 29.109375 43.015625 
Q 36.375 43.015625 40.234375 45.921875 
Q 44.09375 48.828125 44.09375 54.296875 
Q 44.09375 59.90625 40.109375 62.90625 
Q 36.140625 65.921875 28.71875 65.921875 
Q 24.65625 65.921875 20.015625 65.03125 
Q 15.375 64.15625 9.8125 62.3125 
L 9.8125 71.09375 
Q 15.4375 72.65625 20.34375 73.4375 
Q 25.25 74.21875 29.59375 74.21875 
Q 40.828125 74.21875 47.359375 69.109375 
Q 53.90625 64.015625 53.90625 55.328125 
Q 53.90625 49.265625 50.4375 45.09375 
Q 46.96875 40.921875 40.578125 39.3125 
" id="DejaVuSans-33"/>
      </defs>
      <g transform="translate(331.189605 266.598437)scale(0.1 -0.1)">
       <use xlink:href="#DejaVuSans-33"/>
       <use x="63.623047" xlink:href="#DejaVuSans-30"/>
       <use x="127.246094" xlink:href="#DejaVuSans-30"/>
       <use x="190.869141" xlink:href="#DejaVuSans-30"/>
      </g>
     </g>
    </g>
    <g id="text_8">
     <!-- Data Points -->
     <defs>
      <path d="M 19.671875 64.796875 
L 19.671875 8.109375 
L 31.59375 8.109375 
Q 46.6875 8.109375 53.6875 14.9375 
Q 60.6875 21.78125 60.6875 36.53125 
Q 60.6875 51.171875 53.6875 57.984375 
Q 46.6875 64.796875 31.59375 64.796875 
z
M 9.8125 72.90625 
L 30.078125 72.90625 
Q 51.265625 72.90625 61.171875 64.09375 
Q 71.09375 55.28125 71.09375 36.53125 
Q 71.09375 17.671875 61.125 8.828125 
Q 51.171875 0 30.078125 0 
L 9.8125 0 
z
" id="DejaVuSans-44"/>
      <path d="M 34.28125 27.484375 
Q 23.390625 27.484375 19.1875 25 
Q 14.984375 22.515625 14.984375 16.5 
Q 14.984375 11.71875 18.140625 8.90625 
Q 21.296875 6.109375 26.703125 6.109375 
Q 34.1875 6.109375 38.703125 11.40625 
Q 43.21875 16.703125 43.21875 25.484375 
L 43.21875 27.484375 
z
M 52.203125 31.203125 
L 52.203125 0 
L 43.21875 0 
L 43.21875 8.296875 
Q 40.140625 3.328125 35.546875 0.953125 
Q 30.953125 -1.421875 24.3125 -1.421875 
Q 15.921875 -1.421875 10.953125 3.296875 
Q 6 8.015625 6 15.921875 
Q 6 25.140625 12.171875 29.828125 
Q 18.359375 34.515625 30.609375 34.515625 
L 43.21875 34.515625 
L 43.21875 35.40625 
Q 43.21875 41.609375 39.140625 45 
Q 35.0625 48.390625 27.6875 48.390625 
Q 23 48.390625 18.546875 47.265625 
Q 14.109375 46.140625 10.015625 43.890625 
L 10.015625 52.203125 
Q 14.9375 54.109375 19.578125 55.046875 
Q 24.21875 56 28.609375 56 
Q 40.484375 56 46.34375 49.84375 
Q 52.203125 43.703125 52.203125 31.203125 
" id="DejaVuSans-61"/>
      <path d="M 18.3125 70.21875 
L 18.3125 54.6875 
L 36.8125 54.6875 
L 36.8125 47.703125 
L 18.3125 47.703125 
L 18.3125 18.015625 
Q 18.3125 11.328125 20.140625 9.421875 
Q 21.96875 7.515625 27.59375 7.515625 
L 36.8125 7.515625 
L 36.8125 0 
L 27.59375 0 
Q 17.1875 0 13.234375 3.875 
Q 9.28125 7.765625 9.28125 18.015625 
L 9.28125 47.703125 
L 2.6875 47.703125 
L 2.6875 54.6875 
L 9.28125 54.6875 
L 9.28125 70.21875 
z
" id="DejaVuSans-74"/>
      <path id="DejaVuSans-20"/>
      <path d="M 19.671875 64.796875 
L 19.671875 37.40625 
L 32.078125 37.40625 
Q 38.96875 37.40625 42.71875 40.96875 
Q 46.484375 44.53125 46.484375 51.125 
Q 46.484375 57.671875 42.71875 61.234375 
Q 38.96875 64.796875 32.078125 64.796875 
z
M 9.8125 72.90625 
L 32.078125 72.90625 
Q 44.34375 72.90625 50.609375 67.359375 
Q 56.890625 61.8125 56.890625 51.125 
Q 56.890625 40.328125 50.609375 34.8125 
Q 44.34375 29.296875 32.078125 29.296875 
L 19.671875 29.296875 
L 19.671875 0 
L 9.8125 0 
z
" id="DejaVuSans-50"/>
      <path d="M 30.609375 48.390625 
Q 23.390625 48.390625 19.1875 42.75 
Q 14.984375 37.109375 14.984375 27.296875 
Q 14.984375 17.484375 19.15625 11.84375 
Q 23.34375 6.203125 30.609375 6.203125 
Q 37.796875 6.203125 41.984375 11.859375 
Q 46.1875 17.53125 46.1875 27.296875 
Q 46.1875 37.015625 41.984375 42.703125 
Q 37.796875 48.390625 30.609375 48.390625 
M 30.609375 56 
Q 42.328125 56 49.015625 48.375 
Q 55.71875 40.765625 55.71875 27.296875 
Q 55.71875 13.875 49.015625 6.21875 
Q 42.328125 -1.421875 30.609375 -1.421875 
Q 18.84375 -1.421875 12.171875 6.21875 
Q 5.515625 13.875 5.515625 27.296875 
Q 5.515625 40.765625 12.171875 48.375 
Q 18.84375 56 30.609375 56 
" id="DejaVuSans-6f"/>
      <path d="M 9.421875 54.6875 
L 18.40625 54.6875 
L 18.40625 0 
L 9.421875 0 
z
M 9.421875 75.984375 
L 18.40625 75.984375 
L 18.40625 64.59375 
L 9.421875 64.59375 
z
" id="DejaVuSans-69"/>
      <path d="M 54.890625 33.015625 
L 54.890625 0 
L 45.90625 0 
L 45.90625 32.71875 
Q 45.90625 40.484375 42.875 44.328125 
Q 39.84375 48.1875 33.796875 48.1875 
Q 26.515625 48.1875 22.3125 43.546875 
Q 18.109375 38.921875 18.109375 30.90625 
L 18.109375 0 
L 9.078125 0 
L 9.078125 54.6875 
L 18.109375 54.6875 
L 18.109375 46.1875 
Q 21.34375 51.125 25.703125 53.5625 
Q 30.078125 56 35.796875 56 
Q 45.21875 56 50.046875 50.171875 
Q 54.890625 44.34375 54.890625 33.015625 
" id="DejaVuSans-6e"/>
      <path d="M 44.28125 53.078125 
L 44.28125 44.578125 
Q 40.484375 46.53125 36.375 47.5 
Q 32.28125 48.484375 27.875 48.484375 
Q 21.1875 48.484375 17.84375 46.4375 
Q 14.5 44.390625 14.5 40.28125 
Q 14.5 37.15625 16.890625 35.375 
Q 19.28125 33.59375 26.515625 31.984375 
L 29.59375 31.296875 
Q 39.15625 29.25 43.1875 25.515625 
Q 47.21875 21.78125 47.21875 15.09375 
Q 47.21875 7.46875 41.1875 3.015625 
Q 35.15625 -1.421875 24.609375 -1.421875 
Q 20.21875 -1.421875 15.453125 -0.5625 
Q 10.6875 0.296875 5.421875 2 
L 5.421875 11.28125 
Q 10.40625 8.6875 15.234375 7.390625 
Q 20.0625 6.109375 24.8125 6.109375 
Q 31.15625 6.109375 34.5625 8.28125 
Q 37.984375 10.453125 37.984375 14.40625 
Q 37.984375 18.0625 35.515625 20.015625 
Q 33.0625 21.96875 24.703125 23.78125 
L 21.578125 24.515625 
Q 13.234375 26.265625 9.515625 29.90625 
Q 5.8125 33.546875 5.8125 39.890625 
Q 5.8125 47.609375 11.28125 51.796875 
Q 16.75 56 26.8125 56 
Q 31.78125 56 36.171875 55.265625 
Q 40.578125 54.546875 44.28125 53.078125 
" id="DejaVuSans-73"/>
     </defs>
     <g transform="translate(192.678125 280.276563)scale(0.1 -0.1)">
      <use xlink:href="#DejaVuSans-44"/>
      <use x="77.001953" xlink:href="#DejaVuSans-61"/>
      <use x="138.28125" xlink:href="#DejaVuSans-74"/>
      <use x="177.490234" xlink:href="#DejaVuSans-61"/>
      <use x="238.769531" xlink:href="#DejaVuSans-20"/>
      <use x="270.556641" xlink:href="#DejaVuSans-50"/>
      <use x="330.8125" xlink:href="#DejaVuSans-6f"/>
      <use x="391.994141" xlink:href="#DejaVuSans-69"/>
      <use x="419.777344" xlink:href="#DejaVuSans-6e"/>
      <use x="483.15625" xlink:href="#DejaVuSans-74"/>
      <use x="522.365234" xlink:href="#DejaVuSans-73"/>
     </g>
    </g>
   </g>
   <g id="matplotlib.axis_2">
    <g id="ytick_1">
     <g id="line2d_15">
      <path clip-path="url(#pde535656d5)" d="M 54 223.110058 
L 388.8 223.110058 
" style="fill:none;stroke:#b0b0b0;stroke-linecap:square;stroke-width:0.8;"/>
     </g>
     <g id="line2d_16">
      <defs>
       <path d="M 0 0 
L -3.5 0 
" id="mfc58db897c" style="stroke:#000000;stroke-width:0.8;"/>
      </defs>
      <g>
       <use style="stroke:#000000;stroke-width:0.8;" x="54" xlink:href="#mfc58db897c" y="223.110058"/>
      </g>
     </g>
     <g id="text_9">
      <!-- 1300 -->
      <g transform="translate(21.55 226.909277)scale(0.1 -0.1)">
       <use xlink:href="#DejaVuSans-31"/>
       <use x="63.623047" xlink:href="#DejaVuSans-33"/>
       <use x="127.246094" xlink:href="#DejaVuSans-30"/>
       <use x="190.869141" xlink:href="#DejaVuSans-30"/>
      </g>
     </g>
    </g>
    <g id="ytick_2">
     <g id="line2d_17">
      <path clip-path="url(#pde535656d5)" d="M 54 176.380253 
L 388.8 176.380253 
" style="fill:none;stroke:#b0b0b0;stroke-linecap:square;stroke-width:0.8;"/>
     </g>
     <g id="line2d_18">
      <g>
       <use style="stroke:#000000;stroke-width:0.8;" x="54" xlink:href="#mfc58db897c" y="176.380253"/>
      </g>
     </g>
     <g id="text_10">
      <!-- 1350 -->
      <g transform="translate(21.55 180.179472)scale(0.1 -0.1)">
       <use xlink:href="#DejaVuSans-31"/>
       <use x="63.623047" xlink:href="#DejaVuSans-33"/>
       <use x="127.246094" xlink:href="#DejaVuSans-35"/>
       <use x="190.869141" xlink:href="#DejaVuSans-30"/>
      </g>
     </g>
    </g>
    <g id="ytick_3">
     <g id="line2d_19">
      <path clip-path="url(#pde535656d5)" d="M 54 129.650448 
L 388.8 129.650448 
" style="fill:none;stroke:#b0b0b0;stroke-linecap:square;stroke-width:0.8;"/>
     </g>
     <g id="line2d_20">
      <g>
       <use style="stroke:#000000;stroke-width:0.8;" x="54" xlink:href="#mfc58db897c" y="129.650448"/>
      </g>
     </g>
     <g id="text_11">
      <!-- 1400 -->
      <defs>
       <path d="M 37.796875 64.3125 
L 12.890625 25.390625 
L 37.796875 25.390625 
z
M 35.203125 72.90625 
L 47.609375 72.90625 
L 47.609375 25.390625 
L 58.015625 25.390625 
L 58.015625 17.1875 
L 47.609375 17.1875 
L 47.609375 0 
L 37.796875 0 
L 37.796875 17.1875 
L 4.890625 17.1875 
L 4.890625 26.703125 
z
" id="DejaVuSans-34"/>
      </defs>
      <g transform="translate(21.55 133.449667)scale(0.1 -0.1)">
       <use xlink:href="#DejaVuSans-31"/>
       <use x="63.623047" xlink:href="#DejaVuSans-34"/>
       <use x="127.246094" xlink:href="#DejaVuSans-30"/>
       <use x="190.869141" xlink:href="#DejaVuSans-30"/>
      </g>
     </g>
    </g>
    <g id="ytick_4">
     <g id="line2d_21">
      <path clip-path="url(#pde535656d5)" d="M 54 82.920643 
L 388.8 82.920643 
" style="fill:none;stroke:#b0b0b0;stroke-linecap:square;stroke-width:0.8;"/>
     </g>
     <g id="line2d_22">
      <g>
       <use style="stroke:#000000;stroke-width:0.8;" x="54" xlink:href="#mfc58db897c" y="82.920643"/>
      </g>
     </g>
     <g id="text_12">
      <!-- 1450 -->
      <g transform="translate(21.55 86.719862)scale(0.1 -0.1)">
       <use xlink:href="#DejaVuSans-31"/>
       <use x="63.623047" xlink:href="#DejaVuSans-34"/>
       <use x="127.246094" xlink:href="#DejaVuSans-35"/>
       <use x="190.869141" xlink:href="#DejaVuSans-30"/>
      </g>
     </g>
    </g>
    <g id="ytick_5">
     <g id="line2d_23">
      <path clip-path="url(#pde535656d5)" d="M 54 36.190838 
L 388.8 36.190838 
" style="fill:none;stroke:#b0b0b0;stroke-linecap:square;stroke-width:0.8;"/>
     </g>
     <g id="line2d_24">
      <g>
       <use style="stroke:#000000;stroke-width:0.8;" x="54" xlink:href="#mfc58db897c" y="36.190838"/>
      </g>
     </g>
     <g id="text_13">
      <!-- 1500 -->
      <g transform="translate(21.55 39.990057)scale(0.1 -0.1)">
       <use xlink:href="#DejaVuSans-31"/>
       <use x="63.623047" xlink:href="#DejaVuSans-35"/>
       <use x="127.246094" xlink:href="#DejaVuSans-30"/>
       <use x="190.869141" xlink:href="#DejaVuSans-30"/>
      </g>
     </g>
    </g>
    <g id="text_14">
     <!-- Detector Ouput -->
     <defs>
      <path d="M 56.203125 29.59375 
L 56.203125 25.203125 
L 14.890625 25.203125 
Q 15.484375 15.921875 20.484375 11.0625 
Q 25.484375 6.203125 34.421875 6.203125 
Q 39.59375 6.203125 44.453125 7.46875 
Q 49.3125 8.734375 54.109375 11.28125 
L 54.109375 2.78125 
Q 49.265625 0.734375 44.1875 -0.34375 
Q 39.109375 -1.421875 33.890625 -1.421875 
Q 20.796875 -1.421875 13.15625 6.1875 
Q 5.515625 13.8125 5.515625 26.8125 
Q 5.515625 40.234375 12.765625 48.109375 
Q 20.015625 56 32.328125 56 
Q 43.359375 56 49.78125 48.890625 
Q 56.203125 41.796875 56.203125 29.59375 
M 47.21875 32.234375 
Q 47.125 39.59375 43.09375 43.984375 
Q 39.0625 48.390625 32.421875 48.390625 
Q 24.90625 48.390625 20.390625 44.140625 
Q 15.875 39.890625 15.1875 32.171875 
z
" id="DejaVuSans-65"/>
      <path d="M 48.78125 52.59375 
L 48.78125 44.1875 
Q 44.96875 46.296875 41.140625 47.34375 
Q 37.3125 48.390625 33.40625 48.390625 
Q 24.65625 48.390625 19.8125 42.84375 
Q 14.984375 37.3125 14.984375 27.296875 
Q 14.984375 17.28125 19.8125 11.734375 
Q 24.65625 6.203125 33.40625 6.203125 
Q 37.3125 6.203125 41.140625 7.25 
Q 44.96875 8.296875 48.78125 10.40625 
L 48.78125 2.09375 
Q 45.015625 0.34375 40.984375 -0.53125 
Q 36.96875 -1.421875 32.421875 -1.421875 
Q 20.0625 -1.421875 12.78125 6.34375 
Q 5.515625 14.109375 5.515625 27.296875 
Q 5.515625 40.671875 12.859375 48.328125 
Q 20.21875 56 33.015625 56 
Q 37.15625 56 41.109375 55.140625 
Q 45.0625 54.296875 48.78125 52.59375 
" id="DejaVuSans-63"/>
      <path d="M 41.109375 46.296875 
Q 39.59375 47.171875 37.8125 47.578125 
Q 36.03125 48 33.890625 48 
Q 26.265625 48 22.1875 43.046875 
Q 18.109375 38.09375 18.109375 28.8125 
L 18.109375 0 
L 9.078125 0 
L 9.078125 54.6875 
L 18.109375 54.6875 
L 18.109375 46.1875 
Q 20.953125 51.171875 25.484375 53.578125 
Q 30.03125 56 36.53125 56 
Q 37.453125 56 38.578125 55.875 
Q 39.703125 55.765625 41.0625 55.515625 
z
" id="DejaVuSans-72"/>
      <path d="M 39.40625 66.21875 
Q 28.65625 66.21875 22.328125 58.203125 
Q 16.015625 50.203125 16.015625 36.375 
Q 16.015625 22.609375 22.328125 14.59375 
Q 28.65625 6.59375 39.40625 6.59375 
Q 50.140625 6.59375 56.421875 14.59375 
Q 62.703125 22.609375 62.703125 36.375 
Q 62.703125 50.203125 56.421875 58.203125 
Q 50.140625 66.21875 39.40625 66.21875 
M 39.40625 74.21875 
Q 54.734375 74.21875 63.90625 63.9375 
Q 73.09375 53.65625 73.09375 36.375 
Q 73.09375 19.140625 63.90625 8.859375 
Q 54.734375 -1.421875 39.40625 -1.421875 
Q 24.03125 -1.421875 14.8125 8.828125 
Q 5.609375 19.09375 5.609375 36.375 
Q 5.609375 53.65625 14.8125 63.9375 
Q 24.03125 74.21875 39.40625 74.21875 
" id="DejaVuSans-4f"/>
      <path d="M 8.5 21.578125 
L 8.5 54.6875 
L 17.484375 54.6875 
L 17.484375 21.921875 
Q 17.484375 14.15625 20.5 10.265625 
Q 23.53125 6.390625 29.59375 6.390625 
Q 36.859375 6.390625 41.078125 11.03125 
Q 45.3125 15.671875 45.3125 23.6875 
L 45.3125 54.6875 
L 54.296875 54.6875 
L 54.296875 0 
L 45.3125 0 
L 45.3125 8.40625 
Q 42.046875 3.421875 37.71875 1 
Q 33.40625 -1.421875 27.6875 -1.421875 
Q 18.265625 -1.421875 13.375 4.4375 
Q 8.5 10.296875 8.5 21.578125 
M 31.109375 56 
z
" id="DejaVuSans-75"/>
      <path d="M 18.109375 8.203125 
L 18.109375 -20.796875 
L 9.078125 -20.796875 
L 9.078125 54.6875 
L 18.109375 54.6875 
L 18.109375 46.390625 
Q 20.953125 51.265625 25.265625 53.625 
Q 29.59375 56 35.59375 56 
Q 45.5625 56 51.78125 48.09375 
Q 58.015625 40.1875 58.015625 27.296875 
Q 58.015625 14.40625 51.78125 6.484375 
Q 45.5625 -1.421875 35.59375 -1.421875 
Q 29.59375 -1.421875 25.265625 0.953125 
Q 20.953125 3.328125 18.109375 8.203125 
M 48.6875 27.296875 
Q 48.6875 37.203125 44.609375 42.84375 
Q 40.53125 48.484375 33.40625 48.484375 
Q 26.265625 48.484375 22.1875 42.84375 
Q 18.109375 37.203125 18.109375 27.296875 
Q 18.109375 17.390625 22.1875 11.75 
Q 26.265625 6.109375 33.40625 6.109375 
Q 40.53125 6.109375 44.609375 11.75 
Q 48.6875 17.390625 48.6875 27.296875 
" id="DejaVuSans-70"/>
     </defs>
     <g transform="translate(15.470312 182.064375)rotate(-90)scale(0.1 -0.1)">
      <use xlink:href="#DejaVuSans-44"/>
      <use x="77.001953" xlink:href="#DejaVuSans-65"/>
      <use x="138.525391" xlink:href="#DejaVuSans-74"/>
      <use x="177.734375" xlink:href="#DejaVuSans-65"/>
      <use x="239.257812" xlink:href="#DejaVuSans-63"/>
      <use x="294.238281" xlink:href="#DejaVuSans-74"/>
      <use x="333.447266" xlink:href="#DejaVuSans-6f"/>
      <use x="394.628906" xlink:href="#DejaVuSans-72"/>
      <use x="435.742188" xlink:href="#DejaVuSans-20"/>
      <use x="467.529297" xlink:href="#DejaVuSans-4f"/>
      <use x="546.240234" xlink:href="#DejaVuSans-75"/>
      <use x="609.619141" xlink:href="#DejaVuSans-70"/>
      <use x="673.095703" xlink:href="#DejaVuSans-75"/>
      <use x="736.474609" xlink:href="#DejaVuSans-74"/>
     </g>
    </g>
   </g>
   <g id="line2d_25">
    <path clip-path="url(#pde535656d5)" d="M 69.218182 232.029971 
L 69.309747 232.247921 
L 69.401313 232.324135 
L 69.584444 232.14399 
L 70.225402 230.508307 
L 70.316968 230.657708 
L 70.591664 231.768591 
L 70.86636 233.81071 
L 70.957926 238.428696 
L 71.049491 237.743407 
L 71.232622 233.503353 
L 71.598884 217.025254 
L 72.148277 191.368009 
L 72.422973 185.964217 
L 72.514539 186.181444 
L 72.69767 190.017901 
L 72.789235 192.975368 
L 72.972366 190.318842 
L 73.247063 190.289206 
L 73.430194 189.990404 
L 73.521759 190.073201 
L 74.071152 190.670499 
L 74.254283 190.607256 
L 74.528979 190.880394 
L 75.078372 192.57941 
L 75.261503 192.779527 
L 75.5362 193.132101 
L 75.71933 193.126602 
L 75.902461 193.009892 
L 76.268723 192.034661 
L 76.360289 192.073157 
L 76.726551 194.642609 
L 77.184378 197.786751 
L 77.367509 198.420406 
L 77.642205 197.490698 
L 77.916902 194.715018 
L 78.191598 192.334991 
L 78.374729 191.761829 
L 78.466295 191.66895 
L 79.290384 192.797859 
L 79.473515 193.144628 
L 79.656646 193.079857 
L 80.572301 192.055131 
L 80.663866 192.041994 
L 80.938563 191.54063 
L 81.121693 191.598374 
L 81.39639 192.006859 
L 82.128914 194.069753 
L 82.40361 194.163548 
L 82.495176 194.196851 
L 83.044568 193.316027 
L 83.41083 193.627966 
L 83.868658 193.905687 
L 84.143354 193.381103 
L 84.23492 193.513395 
L 84.326485 193.444652 
L 84.509616 193.147989 
L 84.692747 193.002865 
L 84.784312 192.936872 
L 84.967443 193.22162 
L 85.059009 193.200844 
L 85.150574 193.295251 
L 85.425271 193.839388 
L 85.516836 193.645992 
L 85.699967 193.699153 
L 85.974664 193.611773 
L 86.066229 193.744065 
L 86.340926 193.340774 
L 86.524056 192.879434 
L 86.707187 192.896848 
L 86.798753 192.987894 
L 87.073449 194.032784 
L 87.165015 194.143995 
L 87.348146 193.864136 
L 87.531277 194.253372 
L 87.622842 194.131774 
L 87.897539 194.402468 
L 88.08067 194.000093 
L 88.355366 193.329164 
L 88.538497 193.357272 
L 88.904759 193.825334 
L 89.08789 193.92799 
L 89.271021 194.491986 
L 89.454152 194.310811 
L 89.728848 194.494125 
L 90.278241 193.888883 
L 90.461372 193.967402 
L 90.827634 194.331892 
L 91.010765 194.630694 
L 91.285461 194.131774 
L 91.468592 194.185241 
L 91.743288 194.390552 
L 92.292681 193.676544 
L 92.384247 193.638659 
L 92.567378 193.432736 
L 92.750509 193.313888 
L 93.025205 193.80853 
L 93.574598 195.907782 
L 94.032425 197.013471 
L 94.123991 196.898594 
L 94.94808 194.967992 
L 95.131211 194.805148 
L 95.314342 194.576922 
L 95.405907 194.674689 
L 95.863735 196.032741 
L 96.046866 195.912059 
L 96.138431 196.035185 
L 96.596259 197.90346 
L 96.77939 198.364495 
L 96.870955 198.311334 
L 97.145651 197.586327 
L 97.695044 194.733961 
L 97.878175 193.821973 
L 97.969741 193.818918 
L 98.702265 195.397863 
L 98.976961 195.702775 
L 99.343223 195.605008 
L 99.892616 194.075252 
L 100.167312 193.63927 
L 100.533574 193.017836 
L 100.625139 192.930456 
L 101.082967 193.745592 
L 101.357663 194.335253 
L 101.449229 194.444019 
L 101.63236 194.266204 
L 101.907056 194.359694 
L 102.273318 193.613301 
L 102.456449 193.343524 
L 102.822711 193.413488 
L 103.005842 193.668601 
L 103.097407 193.690904 
L 103.280538 194.017814 
L 103.372104 193.816474 
L 103.738366 194.110082 
L 103.829931 194.109776 
L 103.921497 194.278425 
L 104.287758 194.003454 
L 104.470889 193.889494 
L 104.65402 193.602302 
L 104.745586 193.650575 
L 105.020282 193.491397 
L 105.111848 193.514922 
L 105.294979 193.278142 
L 105.569675 193.147072 
L 106.393764 193.253394 
L 106.851592 194.000399 
L 107.217854 194.954549 
L 107.400985 195.234102 
L 107.675681 195.810014 
L 107.858812 195.646254 
L 108.225074 194.697909 
L 108.408205 194.264066 
L 108.774467 194.286063 
L 108.957598 194.149494 
L 109.140729 194.347168 
L 109.415425 194.948438 
L 109.781687 194.470905 
L 109.964818 194.099389 
L 110.147949 193.719623 
L 110.514211 194.165687 
L 110.788907 194.279953 
L 111.246734 194.47396 
L 111.429865 194.397274 
L 111.612996 194.462656 
L 112.070824 194.024841 
L 112.34552 196.1024 
L 112.437086 195.51885 
L 112.711782 189.876444 
L 113.169609 173.372375 
L 113.719002 155.177234 
L 113.902133 153.577514 
L 114.085264 154.910207 
L 114.268395 154.63768 
L 114.451526 154.626987 
L 114.634657 154.732392 
L 114.817788 154.659067 
L 115.18405 153.935282 
L 115.367181 153.640451 
L 116.282836 154.032132 
L 116.649097 155.170513 
L 116.832228 155.472675 
L 117.106925 155.421042 
L 117.290056 155.539585 
L 117.564752 155.227646 
L 117.839449 154.883015 
L 118.114145 155.902852 
L 118.388841 156.983489 
L 118.663538 157.861257 
L 118.846669 158.039072 
L 119.0298 157.862479 
L 119.212931 157.490352 
L 119.487627 156.906802 
L 119.579193 156.880833 
L 119.670758 156.73632 
L 119.945455 157.45155 
L 120.403282 158.551129 
L 120.494847 158.468027 
L 120.586413 158.443279 
L 121.227371 157.517849 
L 121.318937 157.517238 
L 121.502068 157.170469 
L 121.86833 157.554817 
L 122.143026 157.64953 
L 122.326157 157.502878 
L 122.509288 157.997826 
L 122.692419 158.369954 
L 123.333377 159.366266 
L 123.608074 159.996255 
L 124.065901 159.975785 
L 124.340597 160.698653 
L 124.432163 160.709652 
L 124.523728 160.595081 
L 124.88999 161.231486 
L 125.439383 161.056116 
L 125.89721 160.503729 
L 126.080341 160.558112 
L 126.263472 160.497008 
L 126.446603 160.736233 
L 126.629734 160.835528 
L 126.812865 160.340885 
L 127.820085 161.928385 
L 128.186347 162.355812 
L 128.369478 162.105894 
L 128.552609 161.575505 
L 128.73574 161.593837 
L 128.918871 161.433743 
L 129.193567 161.705353 
L 129.285133 161.790899 
L 129.834526 164.012666 
L 130.200788 164.01511 
L 130.658615 163.835462 
L 130.933311 163.225637 
L 131.024877 163.161172 
L 131.482704 164.232642 
L 131.57427 164.229893 
L 131.848966 163.72364 
L 132.032097 163.505497 
L 132.306794 163.079597 
L 132.398359 163.164533 
L 132.58149 162.805237 
L 132.947752 162.97633 
L 133.222448 162.804932 
L 133.405579 162.936612 
L 134.046538 164.475228 
L 134.138103 164.393348 
L 134.321234 164.535111 
L 134.59593 164.332243 
L 135.053758 163.265355 
L 135.145323 163.347236 
L 135.328454 163.676284 
L 135.511585 163.86357 
L 135.786282 163.969587 
L 136.060978 164.08813 
L 136.244109 164.157484 
L 136.335674 164.295886 
L 136.518805 164.023359 
L 136.793502 163.426366 
L 137.068198 163.113205 
L 137.617591 164.477978 
L 137.983853 164.429705 
L 138.075418 164.37135 
L 138.350115 163.891067 
L 138.624811 163.70867 
L 138.716377 163.67934 
L 138.807942 163.806437 
L 139.174204 164.873631 
L 139.26577 165.028225 
L 139.448901 164.614852 
L 139.998293 163.567824 
L 140.089859 163.636566 
L 140.364555 163.181947 
L 140.639252 163.40223 
L 140.730817 163.393675 
L 140.913948 163.146201 
L 141.097079 163.032852 
L 141.371776 162.707775 
L 141.554906 162.859009 
L 141.921168 163.573017 
L 142.012734 163.488998 
L 142.195865 163.634733 
L 142.470561 163.014215 
L 142.745258 162.12392 
L 143.019954 161.842227 
L 143.386216 162.652475 
L 143.935609 164.044746 
L 144.11874 163.9537 
L 144.942829 162.842511 
L 145.12596 162.545542 
L 145.217525 162.498186 
L 146.041615 163.190808 
L 146.316311 163.826296 
L 146.499442 164.015415 
L 146.957269 164.605075 
L 147.872924 163.182253 
L 148.330752 163.643593 
L 148.605448 164.184064 
L 149.246406 164.888907 
L 149.429537 164.891656 
L 149.612668 164.869659 
L 150.711454 163.219527 
L 150.803019 163.185614 
L 151.169281 163.984863 
L 151.443978 164.173676 
L 151.535543 164.173371 
L 151.718674 164.364934 
L 152.084936 163.91001 
L 152.359632 163.202418 
L 152.542763 163.228998 
L 153.183722 163.693394 
L 153.275287 163.659786 
L 153.549984 167.937419 
L 153.641549 167.195914 
L 153.82468 162.147751 
L 154.190942 142.425604 
L 154.8319 106.013019 
L 155.015031 102.11729 
L 155.106597 102.3391 
L 155.381293 105.951609 
L 155.564424 106.058847 
L 155.747555 106.137672 
L 156.022251 104.690102 
L 156.571644 102.163118 
L 156.754775 101.730192 
L 156.846341 101.79374 
L 157.121037 102.629653 
L 157.578864 103.957763 
L 157.67043 103.944014 
L 157.945126 104.418492 
L 158.128257 104.48143 
L 158.219823 104.339973 
L 158.402954 104.438962 
L 158.494519 104.378163 
L 158.769216 103.930571 
L 159.227043 103.509254 
L 159.959567 104.115413 
L 160.051132 104.220207 
L 160.325829 103.774143 
L 160.600525 103.180511 
L 160.875222 102.742696 
L 161.058352 102.635152 
L 161.149918 102.693812 
L 161.333049 102.592379 
L 161.424614 102.699312 
L 161.699311 103.244366 
L 161.974007 103.206175 
L 162.157138 103.578303 
L 162.248704 103.592357 
L 162.889662 104.552922 
L 162.981227 104.568199 
L 163.072793 104.351888 
L 163.347489 104.479597 
L 163.988448 103.411181 
L 164.080013 103.420042 
L 164.35471 104.216236 
L 164.446275 104.116024 
L 164.629406 104.284367 
L 164.812537 104.314614 
L 164.995668 104.453016 
L 165.087233 104.456071 
L 165.819757 103.531558 
L 166.460715 104.525731 
L 166.552281 104.506788 
L 166.735412 104.710878 
L 166.826977 104.694991 
L 166.918543 104.89908 
L 167.010108 104.850197 
L 167.284805 104.59539 
L 167.467936 104.305448 
L 167.742632 104.006952 
L 167.925763 103.775365 
L 168.108894 103.612827 
L 168.200459 103.683708 
L 169.116114 106.393701 
L 169.20768 106.396756 
L 169.482376 105.874311 
L 170.123334 104.04392 
L 170.398031 103.607327 
L 170.581162 103.332356 
L 170.672727 103.375435 
L 170.947424 103.778421 
L 171.405251 104.599973 
L 171.496817 104.520231 
L 171.588382 104.543451 
L 171.863078 104.168574 
L 172.046209 103.823638 
L 172.22934 103.795224 
L 172.412471 103.680042 
L 172.595602 103.707234 
L 172.870299 103.971817 
L 173.236561 103.365658 
L 173.694388 102.293271 
L 173.785953 102.409676 
L 174.06065 103.204342 
L 174.610043 103.819361 
L 174.976305 103.588079 
L 175.251001 103.908573 
L 175.434132 104.183239 
L 175.708828 104.616777 
L 176.258221 103.32869 
L 176.349787 103.386434 
L 176.716049 102.837408 
L 176.807614 102.880793 
L 177.173876 103.478702 
L 177.448572 103.517504 
L 177.540138 103.547445 
L 177.723269 103.444789 
L 178.181096 104.393439 
L 178.272662 104.346694 
L 178.455793 104.725849 
L 178.547358 104.676048 
L 178.730489 104.506177 
L 179.005185 103.566082 
L 179.92084 99.049224 
L 180.103971 99.036697 
L 180.287102 99.596722 
L 180.470233 99.644689 
L 181.019626 98.724147 
L 181.202757 98.773642 
L 181.569019 98.462313 
L 181.75215 98.712537 
L 182.026846 99.501093 
L 182.118412 99.410963 
L 182.301543 99.460458 
L 182.667804 99.103301 
L 182.850935 99.064194 
L 183.034066 99.183043 
L 183.308763 98.86041 
L 183.675025 98.977426 
L 183.858156 98.800222 
L 183.949721 98.909905 
L 184.132852 99.411574 
L 184.407548 99.681352 
L 184.590679 100.099919 
L 184.77381 99.850001 
L 185.048507 99.012561 
L 185.140072 99.049835 
L 185.506334 100.05134 
L 185.5979 100.084031 
L 186.330423 101.801379 
L 186.696685 101.257852 
L 187.062947 102.456421 
L 187.337644 103.595106 
L 187.429209 103.579525 
L 187.703905 104.235789 
L 187.887036 104.370219 
L 188.436429 103.035999 
L 188.711126 103.569443 
L 189.168953 104.673299 
L 189.260519 104.584391 
L 189.443649 104.662911 
L 189.718346 104.162769 
L 190.084608 102.64554 
L 190.267739 102.091015 
L 190.634001 102.281967 
L 190.725566 101.997525 
L 190.817132 102.141121 
L 190.908697 102.077266 
L 191.091828 101.623564 
L 191.183394 101.712471 
L 191.366524 101.949557 
L 191.549655 101.951085 
L 191.641221 101.909839 
L 192.190614 103.259947 
L 193.014703 106.396756 
L 193.289399 106.684559 
L 193.747227 105.33384 
L 194.113489 103.701734 
L 194.29662 103.426458 
L 194.479751 103.826693 
L 194.754447 107.950343 
L 194.846012 107.368626 
L 195.029143 103.10413 
L 195.395405 84.399987 
L 196.036364 49.157863 
L 196.219495 45.739361 
L 196.31106 46.022581 
L 196.585756 49.061012 
L 197.31828 50.633846 
L 197.501411 50.401648 
L 197.684542 49.919532 
L 198.050804 48.525124 
L 198.3255 47.883219 
L 198.691762 48.247403 
L 198.783328 48.482961 
L 199.241155 50.997419 
L 199.424286 51.215257 
L 199.515852 51.095186 
L 199.698983 50.534551 
L 200.15681 49.899062 
L 200.339941 49.455442 
L 200.431506 49.500354 
L 200.889334 50.704728 
L 200.980899 50.613376 
L 201.16403 50.261719 
L 201.438727 50.245831 
L 202.262816 52.270535 
L 202.354381 52.406493 
L 202.720643 52.006868 
L 202.903774 51.74534 
L 203.178471 52.276645 
L 203.270036 52.1801 
L 203.636298 52.488984 
L 204.00256 52.104025 
L 204.368822 51.233283 
L 204.551953 50.94823 
L 204.643518 50.977865 
L 205.101346 51.748701 
L 205.192911 51.726398 
L 205.742304 50.471613 
L 206.017 50.78233 
L 206.200131 51.072272 
L 206.383262 51.232977 
L 206.566393 51.10588 
L 206.657959 51.189899 
L 206.932655 50.89904 
L 207.390482 51.068606 
L 207.939875 51.681486 
L 208.214572 51.150181 
L 208.306137 50.791496 
L 208.397703 50.844046 
L 208.580834 50.838547 
L 208.947096 51.490839 
L 209.221792 51.481368 
L 209.496488 50.910345 
L 210.320578 51.352743 
L 210.595274 50.92501 
L 210.68684 51.006279 
L 210.778405 50.98031 
L 211.144667 50.437089 
L 211.327798 50.733447 
L 211.602494 51.229922 
L 211.69406 51.291332 
L 212.151887 50.656455 
L 212.335018 50.37079 
L 212.70128 50.265996 
L 213.067542 50.982754 
L 213.250673 51.067384 
L 213.525369 51.148348 
L 213.7085 51.222895 
L 213.800066 51.058524 
L 213.983197 51.394599 
L 214.074762 51.215563 
L 214.257893 50.832742 
L 214.349458 50.92501 
L 214.624155 51.195704 
L 214.990417 50.536995 
L 215.722941 51.131238 
L 215.814506 51.239088 
L 215.906072 51.093964 
L 216.363899 51.544306 
L 216.730161 52.636247 
L 216.821726 52.718127 
L 217.004857 53.10553 
L 217.279554 53.183439 
L 217.828947 53.425413 
L 218.103643 52.868139 
L 218.286774 53.275707 
L 218.469905 53.28915 
L 219.110863 51.41568 
L 219.38556 51.133071 
L 219.568691 51.073189 
L 219.751821 50.998336 
L 219.934952 51.484118 
L 220.118083 52.076833 
L 220.575911 52.903274 
L 220.759042 53.31512 
L 220.850607 53.395167 
L 221.125304 53.04412 
L 221.674696 51.122684 
L 221.766262 51.146514 
L 221.949393 50.918288 
L 222.498786 51.243365 
L 222.681917 50.980921 
L 223.597571 46.902183 
L 223.872268 46.007916 
L 224.146964 44.883896 
L 224.23853 45.032685 
L 224.513226 44.644365 
L 224.696357 44.443636 
L 225.520446 45.372122 
L 225.612012 45.40573 
L 225.795143 45.332404 
L 225.886708 45.341875 
L 225.978274 45.18392 
L 226.069839 45.430782 
L 226.25297 45.381288 
L 226.436101 45.390148 
L 226.619232 45.384037 
L 226.893928 45.162533 
L 227.077059 45.026269 
L 227.534887 45.525189 
L 227.718018 45.792828 
L 227.809583 45.708198 
L 227.992714 45.877763 
L 228.267411 45.705448 
L 228.816803 47.102607 
L 229.457762 49.736218 
L 229.549327 49.698333 
L 229.824024 49.013044 
L 230.09872 48.402609 
L 230.464982 48.886863 
L 231.197506 51.598689 
L 231.289071 51.702567 
L 231.380637 51.512531 
L 231.655333 50.54005 
L 232.11316 49.62898 
L 232.204726 49.683363 
L 232.662553 51.495422 
L 232.93725 52.418714 
L 233.120381 52.614554 
L 233.486643 51.874882 
L 233.761339 51.262919 
L 233.852904 51.262613 
L 234.036035 51.994342 
L 234.585428 55.190117 
L 234.768559 55.404289 
L 234.95169 55.423537 
L 235.134821 55.362432 
L 235.684214 53.628281 
L 235.95891 49.918005 
L 236.050476 50.665621 
L 236.233607 55.311409 
L 236.691434 78.534855 
L 237.240827 106.246133 
L 237.423958 109.311144 
L 237.515523 109.137301 
L 237.698654 106.011797 
L 237.79022 106.000492 
L 238.156482 106.648507 
L 238.339613 106.286462 
L 238.614309 106.798214 
L 238.980571 107.546746 
L 239.621529 109.398218 
L 239.80466 109.5134 
L 239.896226 109.447102 
L 240.445619 108.178874 
L 240.537184 108.254949 
L 240.62875 108.169708 
L 240.903446 108.560778 
L 240.995011 108.367688 
L 241.361273 108.341107 
L 241.452839 108.462094 
L 241.63597 108.408322 
L 242.185363 108.231119 
L 242.734755 109.392719 
L 242.917886 109.177019 
L 243.375714 108.832389 
L 243.558845 108.516478 
L 243.925107 107.86388 
L 244.016672 107.941482 
L 244.199803 107.857464 
L 244.65763 107.943927 
L 245.023892 108.524116 
L 245.207023 108.598969 
L 245.390154 108.598052 
L 245.573285 108.557112 
L 245.847982 108.285502 
L 246.305809 108.902048 
L 246.48894 109.23293 
L 246.580505 109.333753 
L 246.672071 109.244234 
L 246.763636 109.353001 
L 247.587726 108.250061 
L 247.770857 108.42146 
L 248.228684 108.13549 
L 248.411815 107.751141 
L 248.50338 107.745031 
L 248.686511 107.834855 
L 248.778077 107.883739 
L 248.961208 108.05361 
L 249.144339 108.278475 
L 249.32747 108.506395 
L 249.510601 108.675961 
L 250.243124 107.29194 
L 250.33469 107.25711 
L 250.426255 107.43248 
L 250.609386 107.294384 
L 250.975648 107.781694 
L 251.250345 108.330108 
L 251.708172 107.945454 
L 251.799737 108.024585 
L 251.982868 108.43032 
L 252.074434 108.472788 
L 252.257565 108.776478 
L 252.34913 108.576055 
L 252.440696 108.633798 
L 252.532261 108.511895 
L 252.715392 108.078357 
L 252.806958 108.100049 
L 253.356351 107.602351 
L 253.447916 107.621294 
L 253.722612 108.059414 
L 253.814178 107.889238 
L 253.905743 107.941482 
L 253.997309 108.03039 
L 254.088874 107.958286 
L 254.363571 107.377792 
L 254.455136 107.368015 
L 254.638267 107.475559 
L 254.912964 107.120541 
L 255.096095 107.269942 
L 255.279225 107.354572 
L 255.370791 107.613045 
L 255.462356 107.518638 
L 255.737053 107.845854 
L 256.103315 108.123269 
L 256.286446 108.408933 
L 256.469577 108.303222 
L 257.018969 109.295868 
L 257.2021 109.554646 
L 257.293666 109.397913 
L 257.385231 109.549758 
L 257.659928 109.000121 
L 258.117755 107.736171 
L 258.209321 107.672316 
L 258.575583 108.317276 
L 259.124975 107.981812 
L 259.308106 108.087523 
L 259.399672 108.090578 
L 259.582803 107.987311 
L 259.857499 107.620377 
L 259.949065 107.516194 
L 260.132196 107.157509 
L 260.315327 107.098849 
L 260.406892 106.987333 
L 260.681588 106.352455 
L 260.864719 106.263242 
L 261.139416 107.360988 
L 261.505678 109.439158 
L 261.780374 109.905387 
L 261.87194 109.821979 
L 262.055071 110.042567 
L 262.329767 109.199628 
L 262.696029 107.949121 
L 262.787594 107.836382 
L 262.87916 107.91643 
L 263.245422 108.752953 
L 263.520118 108.878523 
L 263.611684 108.69582 
L 263.794815 108.960097 
L 264.161076 108.381436 
L 264.435773 107.757557 
L 264.618904 107.679343 
L 264.802035 107.982117 
L 264.8936 107.842493 
L 264.985166 107.912763 
L 265.076731 108.128768 
L 265.259862 108.03039 
L 265.534559 108.274197 
L 265.809255 108.029473 
L 266.083951 107.938122 
L 266.267082 108.119297 
L 266.908041 109.132413 
L 267.091172 108.948182 
L 267.640564 109.483154 
L 268.006826 108.411377 
L 268.373088 108.314832 
L 268.647785 108.475537 
L 268.73935 108.419932 
L 268.830916 108.529921 
L 269.197178 109.74346 
L 269.471874 109.920052 
L 269.563439 109.70588 
L 269.74657 109.824729 
L 269.838136 109.861392 
L 270.021267 110.084118 
L 270.57066 109.692132 
L 271.120053 108.563528 
L 271.303183 108.226536 
L 271.394749 108.344162 
L 271.852576 109.499346 
L 271.944142 109.726656 
L 272.035707 109.68541 
L 272.218838 110.027291 
L 272.493535 110.699137 
L 272.676666 110.872063 
L 272.859797 110.969525 
L 273.134493 110.498102 
L 273.317624 110.935917 
L 273.59232 110.479465 
L 273.867017 109.270204 
L 274.599541 110.026374 
L 274.691106 110.277209 
L 274.782671 110.21977 
L 275.057368 110.826234 
L 275.148933 111.077986 
L 275.515195 110.582732 
L 275.789892 110.799348 
L 276.522415 109.885528 
L 276.797112 109.292812 
L 276.888677 109.254928 
L 277.163374 105.484769 
L 277.346505 108.208815 
L 277.621201 119.086976 
L 278.536856 167.19347 
L 278.719987 168.549383 
L 278.903118 166.050812 
L 279.452511 167.290321 
L 279.635642 167.691778 
L 279.727207 167.650533 
L 280.001904 167.954529 
L 280.2766 167.793823 
L 280.551296 167.944141 
L 280.917558 168.812744 
L 281.192255 168.865599 
L 281.466951 169.514226 
L 281.741648 169.904073 
L 282.199475 170.217846 
L 282.382606 170.504427 
L 282.657302 170.701184 
L 282.840433 170.434768 
L 282.931999 170.534063 
L 283.11513 170.680103 
L 283.572957 171.369669 
L 283.756088 171.368142 
L 284.030784 171.300926 
L 284.488612 171.887226 
L 284.671743 171.595451 
L 284.763308 171.577731 
L 285.312701 170.856084 
L 285.495832 170.772982 
L 285.953659 171.413359 
L 286.13679 171.462243 
L 286.594618 170.112746 
L 286.777749 169.909573 
L 286.96088 169.927293 
L 287.327141 170.378246 
L 287.601838 171.234017 
L 287.693403 171.178717 
L 288.059665 171.490351 
L 288.151231 171.528236 
L 288.242796 171.441773 
L 288.792189 172.10537 
L 289.066885 172.249882 
L 289.250016 172.439001 
L 289.433147 172.238578 
L 289.707844 171.949247 
L 290.165671 171.764405 
L 290.348802 171.923278 
L 290.531933 172.075428 
L 290.898195 172.943726 
L 291.264457 173.088238 
L 291.447588 173.330213 
L 291.722284 173.295689 
L 291.905415 173.037216 
L 291.996981 173.039049 
L 292.363243 172.543796 
L 292.637939 172.802268 
L 292.912635 172.879566 
L 293.278897 173.636653 
L 294.286117 174.521754 
L 294.377683 174.522976 
L 294.652379 174.075996 
L 294.743945 174.146571 
L 294.927076 174.126101 
L 295.201772 174.491202 
L 295.476469 174.483869 
L 295.6596 174.576137 
L 296.025862 174.191789 
L 296.392123 173.476253 
L 296.66682 173.714256 
L 296.941516 174.090355 
L 297.033082 173.879544 
L 297.490909 174.534281 
L 297.67404 174.451484 
L 297.948736 174.099521 
L 298.314998 173.968146 
L 298.406564 173.919262 
L 298.589695 173.649485 
L 298.772826 173.76039 
L 298.955957 173.774138 
L 299.413784 173.982505 
L 300.054742 174.916185 
L 300.237873 175.148688 
L 300.329439 175.108665 
L 300.51257 175.239123 
L 300.695701 174.734398 
L 300.787266 174.812918 
L 301.245094 174.559945 
L 301.51979 174.379075 
L 301.977617 175.130051 
L 302.984838 175.361638 
L 303.259534 174.981261 
L 303.625796 174.653435 
L 303.900492 174.850192 
L 304.449885 174.578582 
L 304.633016 174.713928 
L 305.273974 174.245867 
L 305.36554 174.358299 
L 305.731802 175.317032 
L 305.914933 175.73071 
L 306.37276 176.909725 
L 306.647457 176.907586 
L 306.922153 176.389419 
L 307.654677 174.415127 
L 308.20407 174.311249 
L 308.661897 175.626221 
L 308.936593 175.832144 
L 309.119724 175.884389 
L 309.394421 175.652496 
L 309.943814 176.599313 
L 310.401641 177.507634 
L 310.493206 177.663451 
L 310.584772 177.55774 
L 310.859468 176.357644 
L 311.317296 173.599379 
L 311.683558 172.787909 
L 311.775123 172.868262 
L 311.866689 172.828238 
L 312.049819 173.481753 
L 312.324516 174.908241 
L 312.599212 175.094916 
L 312.873909 174.492424 
L 312.965474 174.229674 
L 313.331736 174.742037 
L 313.606433 175.376609 
L 313.789564 175.884694 
L 314.06426 176.477715 
L 314.613653 176.690359 
L 315.254611 177.660702 
L 315.346177 177.584626 
L 315.620873 177.977835 
L 316.170266 176.606035 
L 316.90279 174.778088 
L 317.177486 175.2987 
L 317.360617 175.769817 
L 317.635313 175.921357 
L 317.726879 176.161804 
L 318.001575 175.892332 
L 318.093141 175.95527 
L 318.367837 182.91051 
L 318.459403 181.840262 
L 318.642534 173.72281 
L 319.008796 140.125624 
L 319.649754 75.558751 
L 319.832885 68.457165 
L 319.92445 68.365814 
L 320.107581 73.043377 
L 321.023236 68.183722 
L 321.114801 68.180361 
L 321.389498 67.974133 
L 321.572629 67.792652 
L 321.847325 66.847668 
L 322.671415 63.239131 
L 322.854545 63.294736 
L 323.587069 65.729147 
L 323.678635 65.740145 
L 324.685855 63.266322 
L 324.77742 63.141669 
L 325.143682 62.079364 
L 325.326813 62.103195 
L 325.418379 62.245569 
L 325.509944 61.884746 
L 325.60151 61.926297 
L 326.059337 62.632361 
L 326.334033 63.436193 
L 326.60873 62.610364 
L 327.524385 60.005777 
L 327.61595 60.168926 
L 327.707516 60.101711 
L 327.982212 60.739644 
L 328.073777 60.662652 
L 328.348474 60.892711 
L 328.440039 60.931513 
L 328.714736 60.777834 
L 328.806301 60.748504 
L 329.355694 58.887866 
L 329.44726 58.934917 
L 329.538825 58.9893 
L 329.813521 59.781522 
L 330.271349 60.941595 
L 330.546045 60.512029 
L 331.003873 58.391085 
L 331.187004 58.348618 
L 331.278569 58.370004 
L 331.644831 59.464084 
L 331.919527 61.119715 
L 332.102658 61.512924 
L 332.285789 61.231231 
L 332.560486 61.182347 
L 332.652051 61.335414 
L 332.835182 61.789728 
L 333.109879 60.985285 
L 333.842402 58.581732 
L 334.025533 57.7724 
L 334.117099 57.824645 
L 334.208664 57.98199 
L 334.849623 60.296329 
L 335.215884 60.848105 
L 335.30745 60.802887 
L 335.399015 60.891489 
L 335.673712 60.3666 
L 335.856843 60.264249 
L 336.131539 60.929068 
L 336.223105 60.900044 
L 336.497801 60.190618 
L 336.772498 60.071464 
L 337.413456 60.985285 
L 337.871283 60.880185 
L 338.054414 60.524555 
L 338.512242 59.24869 
L 338.970069 59.905565 
L 339.244765 59.442697 
L 339.611027 60.497975 
L 339.702593 60.560607 
L 340.343551 62.032313 
L 340.435117 62.094946 
L 340.618247 61.938212 
L 341.99173 53.440079 
L 342.632688 50.345738 
L 342.815819 50.192059 
L 342.907384 50.244915 
L 343.182081 50.580991 
L 343.456777 51.188982 
L 343.823039 52.721182 
L 343.914605 52.819255 
L 344.097735 52.356998 
L 344.372432 51.669876 
L 344.555563 51.701039 
L 344.738694 51.65185 
L 345.196521 50.588934 
L 345.471218 51.65185 
L 345.562783 51.67232 
L 345.929045 51.276362 
L 346.570003 52.478902 
L 346.661569 52.38755 
L 346.8447 52.304143 
L 347.027831 52.562615 
L 347.210962 52.992487 
L 347.668789 53.378668 
L 348.401313 55.246944 
L 348.584444 55.292467 
L 348.85914 55.834466 
L 349.225402 55.579659 
L 349.500098 55.055381 
L 349.683229 54.879399 
L 350.049491 54.986944 
L 350.69045 56.742176 
L 350.873581 56.574138 
L 351.148277 55.771833 
L 351.239842 55.712867 
L 351.606104 54.761773 
L 351.69767 54.637425 
L 351.789235 54.739775 
L 352.247063 56.156487 
L 352.796456 57.244151 
L 352.979586 57.714046 
L 353.162717 57.511178 
L 353.437414 57.050449 
L 353.71211 56.935877 
L 353.803676 56.67496 
L 353.895241 56.734843 
L 353.986807 56.793198 
L 354.078372 56.716512 
L 354.261503 56.913269 
L 354.353069 56.96979 
L 354.5362 57.394774 
L 354.627765 57.240179 
L 354.71933 57.386219 
L 354.810896 57.280508 
L 355.085592 57.648664 
L 355.268723 57.641331 
L 355.909682 59.477527 
L 356.001247 59.617456 
L 356.733771 57.265537 
L 356.916902 56.966124 
L 357.100033 57.4073 
L 357.374729 58.480298 
L 357.740991 59.281686 
L 357.924122 58.860369 
L 358.290384 57.461378 
L 358.656646 57.171436 
L 359.114473 57.680438 
L 359.297604 57.614139 
L 359.572301 52.648467 
L 359.663866 52.752345 
L 359.755432 54.12995 
L 359.846997 53.502405 
L 359.938563 55.580881 
L 360.121693 67.852229 
L 360.487955 119.864533 
L 361.128914 217.84039 
L 361.40361 232.903305 
L 361.495176 234.772192 
L 361.586741 234.284271 
L 361.769872 231.040224 
L 361.953003 231.015171 
L 362.227699 231.142574 
L 362.685527 232.469157 
L 362.960223 233.546738 
L 363.23492 234.320017 
L 363.418051 234.653649 
L 363.601181 234.730641 
L 363.784312 234.575435 
L 364.150574 235.232005 
L 364.24214 235.145542 
L 364.425271 234.974448 
L 365.157795 236.037975 
L 365.707187 236.874804 
L 366.073449 236.804228 
L 366.25658 236.450432 
L 366.348146 236.483123 
L 366.622842 236.329139 
L 366.714408 236.298587 
L 366.897539 236.565614 
L 366.989104 236.570197 
L 367.172235 236.676214 
L 367.721628 236.079221 
L 368.08789 236.564392 
L 368.362586 237.121973 
L 368.728848 238.374618 
L 369.186675 239.113985 
L 369.461372 238.721999 
L 370.010765 239.553939 
L 370.468592 241.185128 
L 370.926419 242.116364 
L 371.201116 241.349805 
L 371.475812 240.622049 
L 371.658943 240.423153 
L 371.93364 240.809335 
L 372.116771 240.788253 
L 372.849294 242.044106 
L 373.490253 241.846485 
L 373.581818 241.897146 
L 373.581818 241.897146 
" style="fill:none;stroke:#ffa500;stroke-linecap:square;stroke-width:1.5;"/>
   </g>
   <g id="patch_3">
    <path d="M 54 252 
L 54 34.56 
" style="fill:none;stroke:#000000;stroke-linecap:square;stroke-linejoin:miter;stroke-width:0.8;"/>
   </g>
   <g id="patch_4">
    <path d="M 388.8 252 
L 388.8 34.56 
" style="fill:none;stroke:#000000;stroke-linecap:square;stroke-linejoin:miter;stroke-width:0.8;"/>
   </g>
   <g id="patch_5">
    <path d="M 54 252 
L 388.8 252 
" style="fill:none;stroke:#000000;stroke-linecap:square;stroke-linejoin:miter;stroke-width:0.8;"/>
   </g>
   <g id="patch_6">
    <path d="M 54 34.56 
L 388.8 34.56 
" style="fill:none;stroke:#000000;stroke-linecap:square;stroke-linejoin:miter;stroke-width:0.8;"/>
   </g>
   <g id="text_15">
    <!-- TREAT 2899T Detector Output -->
    <defs>
     <path d="M -0.296875 72.90625 
L 61.375 72.90625 
L 61.375 64.59375 
L 35.5 64.59375 
L 35.5 0 
L 25.59375 0 
L 25.59375 64.59375 
L -0.296875 64.59375 
z
" id="DejaVuSans-54"/>
     <path d="M 44.390625 34.1875 
Q 47.5625 33.109375 50.5625 29.59375 
Q 53.5625 26.078125 56.59375 19.921875 
L 66.609375 0 
L 56 0 
L 46.6875 18.703125 
Q 43.0625 26.03125 39.671875 28.421875 
Q 36.28125 30.8125 30.421875 30.8125 
L 19.671875 30.8125 
L 19.671875 0 
L 9.8125 0 
L 9.8125 72.90625 
L 32.078125 72.90625 
Q 44.578125 72.90625 50.734375 67.671875 
Q 56.890625 62.453125 56.890625 51.90625 
Q 56.890625 45.015625 53.6875 40.46875 
Q 50.484375 35.9375 44.390625 34.1875 
M 19.671875 64.796875 
L 19.671875 38.921875 
L 32.078125 38.921875 
Q 39.203125 38.921875 42.84375 42.21875 
Q 46.484375 45.515625 46.484375 51.90625 
Q 46.484375 58.296875 42.84375 61.546875 
Q 39.203125 64.796875 32.078125 64.796875 
z
" id="DejaVuSans-52"/>
     <path d="M 9.8125 72.90625 
L 55.90625 72.90625 
L 55.90625 64.59375 
L 19.671875 64.59375 
L 19.671875 43.015625 
L 54.390625 43.015625 
L 54.390625 34.71875 
L 19.671875 34.71875 
L 19.671875 8.296875 
L 56.78125 8.296875 
L 56.78125 0 
L 9.8125 0 
z
" id="DejaVuSans-45"/>
     <path d="M 34.1875 63.1875 
L 20.796875 26.90625 
L 47.609375 26.90625 
z
M 28.609375 72.90625 
L 39.796875 72.90625 
L 67.578125 0 
L 57.328125 0 
L 50.6875 18.703125 
L 17.828125 18.703125 
L 11.1875 0 
L 0.78125 0 
z
" id="DejaVuSans-41"/>
     <path d="M 31.78125 34.625 
Q 24.75 34.625 20.71875 30.859375 
Q 16.703125 27.09375 16.703125 20.515625 
Q 16.703125 13.921875 20.71875 10.15625 
Q 24.75 6.390625 31.78125 6.390625 
Q 38.8125 6.390625 42.859375 10.171875 
Q 46.921875 13.96875 46.921875 20.515625 
Q 46.921875 27.09375 42.890625 30.859375 
Q 38.875 34.625 31.78125 34.625 
M 21.921875 38.8125 
Q 15.578125 40.375 12.03125 44.71875 
Q 8.5 49.078125 8.5 55.328125 
Q 8.5 64.0625 14.71875 69.140625 
Q 20.953125 74.21875 31.78125 74.21875 
Q 42.671875 74.21875 48.875 69.140625 
Q 55.078125 64.0625 55.078125 55.328125 
Q 55.078125 49.078125 51.53125 44.71875 
Q 48 40.375 41.703125 38.8125 
Q 48.828125 37.15625 52.796875 32.3125 
Q 56.78125 27.484375 56.78125 20.515625 
Q 56.78125 9.90625 50.3125 4.234375 
Q 43.84375 -1.421875 31.78125 -1.421875 
Q 19.734375 -1.421875 13.25 4.234375 
Q 6.78125 9.90625 6.78125 20.515625 
Q 6.78125 27.484375 10.78125 32.3125 
Q 14.796875 37.15625 21.921875 38.8125 
M 18.3125 54.390625 
Q 18.3125 48.734375 21.84375 45.5625 
Q 25.390625 42.390625 31.78125 42.390625 
Q 38.140625 42.390625 41.71875 45.5625 
Q 45.3125 48.734375 45.3125 54.390625 
Q 45.3125 60.0625 41.71875 63.234375 
Q 38.140625 66.40625 31.78125 66.40625 
Q 25.390625 66.40625 21.84375 63.234375 
Q 18.3125 60.0625 18.3125 54.390625 
" id="DejaVuSans-38"/>
     <path d="M 10.984375 1.515625 
L 10.984375 10.5 
Q 14.703125 8.734375 18.5 7.8125 
Q 22.3125 6.890625 25.984375 6.890625 
Q 35.75 6.890625 40.890625 13.453125 
Q 46.046875 20.015625 46.78125 33.40625 
Q 43.953125 29.203125 39.59375 26.953125 
Q 35.25 24.703125 29.984375 24.703125 
Q 19.046875 24.703125 12.671875 31.3125 
Q 6.296875 37.9375 6.296875 49.421875 
Q 6.296875 60.640625 12.9375 67.421875 
Q 19.578125 74.21875 30.609375 74.21875 
Q 43.265625 74.21875 49.921875 64.515625 
Q 56.59375 54.828125 56.59375 36.375 
Q 56.59375 19.140625 48.40625 8.859375 
Q 40.234375 -1.421875 26.421875 -1.421875 
Q 22.703125 -1.421875 18.890625 -0.6875 
Q 15.09375 0.046875 10.984375 1.515625 
M 30.609375 32.421875 
Q 37.25 32.421875 41.125 36.953125 
Q 45.015625 41.5 45.015625 49.421875 
Q 45.015625 57.28125 41.125 61.84375 
Q 37.25 66.40625 30.609375 66.40625 
Q 23.96875 66.40625 20.09375 61.84375 
Q 16.21875 57.28125 16.21875 49.421875 
Q 16.21875 41.5 20.09375 36.953125 
Q 23.96875 32.421875 30.609375 32.421875 
" id="DejaVuSans-39"/>
    </defs>
    <g transform="translate(130.370625 28.56)scale(0.12 -0.12)">
     <use xlink:href="#DejaVuSans-54"/>
     <use x="61.083984" xlink:href="#DejaVuSans-52"/>
     <use x="130.566406" xlink:href="#DejaVuSans-45"/>
     <use x="193.75" xlink:href="#DejaVuSans-41"/>
     <use x="262.048828" xlink:href="#DejaVuSans-54"/>
     <use x="323.132812" xlink:href="#DejaVuSans-20"/>
     <use x="354.919922" xlink:href="#DejaVuSans-32"/>
     <use x="418.542969" xlink:href="#DejaVuSans-38"/>
     <use x="482.166016" xlink:href="#DejaVuSans-39"/>
     <use x="545.789062" xlink:href="#DejaVuSans-39"/>
     <use x="609.412109" xlink:href="#DejaVuSans-54"/>
     <use x="670.496094" xlink:href="#DejaVuSans-20"/>
     <use x="702.283203" xlink:href="#DejaVuSans-44"/>
     <use x="779.285156" xlink:href="#DejaVuSans-65"/>
     <use x="840.808594" xlink:href="#DejaVuSans-74"/>
     <use x="880.017578" xlink:href="#DejaVuSans-65"/>
     <use x="941.541016" xlink:href="#DejaVuSans-63"/>
     <use x="996.521484" xlink:href="#DejaVuSans-74"/>
     <use x="1035.730469" xlink:href="#DejaVuSans-6f"/>
     <use x="1096.912109" xlink:href="#DejaVuSans-72"/>
     <use x="1138.025391" xlink:href="#DejaVuSans-20"/>
     <use x="1169.8125" xlink:href="#DejaVuSans-4f"/>
     <use x="1248.523438" xlink:href="#DejaVuSans-75"/>
     <use x="1311.902344" xlink:href="#DejaVuSans-74"/>
     <use x="1351.111328" xlink:href="#DejaVuSans-70"/>
     <use x="1414.587891" xlink:href="#DejaVuSans-75"/>
     <use x="1477.966797" xlink:href="#DejaVuSans-74"/>
    </g>
   </g>
  </g>
 </g>
 <defs>
  <clipPath id="pde535656d5">
   <rect height="217.44" width="334.8" x="54" y="34.56"/>
  </clipPath>
 </defs>
</svg>
